#N canvas 796 269 404 442 10;
#X declare -path samples;
#X declare -path abstractions;
#X declare -path ../../Applications/Pd-extended.app/Contents/Resources/extra/net
;
#X declare -path ../../Applications/Pd-extended.app/Contents/Resources/extra/osc
;
#X obj 15 78 drum;
#X obj 15 204 phaser;
#X obj 15 280 dac~ 1 2;
#N canvas 291 418 1438 738 test 1;
#X msg 250 65 /synth/freq \$1;
#X floatatom 253 40 5 0 0 0 - - -;
#X obj 409 107 tgl 15 0 empty empty empty 17 7 0 10 -262144 -1 -1 0
1;
#X msg 280 133 /synth/timeVar \$1;
#X floatatom 283 98 5 0 0 0 - - -;
#X msg 409 134 /synth/onOff \$1;
#X obj 250 190 through;
#X msg 534 74 /phaser/freq \$1;
#X obj 534 181 through;
#X floatatom 534 37 5 0 0 0 - - -;
#X floatatom 682 33 5 0 0 0 - - -;
#X msg 682 70 /delay/time \$1;
#X obj 729 37 tgl 15 0 empty empty empty 17 7 0 10 -262144 -1 -1 1
1;
#X msg 723 93 /delay/mode \$1;
#X obj 704 168 through;
#X obj 608 689 outlet;
#X obj 846 31 tgl 15 0 empty empty empty 17 7 0 10 -262144 -1 -1 0
1;
#X obj 866 234 through;
#X obj 865 33 tgl 15 0 empty empty empty 17 7 0 10 -262144 -1 -1 1
1;
#X msg 865 82 /aRoute/drum/phaser \$1;
#X obj 883 108 tgl 15 0 empty empty empty 17 7 0 10 -262144 -1 -1 0
1;
#X obj 902 110 tgl 15 0 empty empty empty 17 7 0 10 -262144 -1 -1 0
1;
#X msg 883 137 /aRoute/synth/delay \$1;
#X msg 902 159 /aRoute/synt/phaser \$1;
#X floatatom 1117 38 5 0 0 0 - - -;
#X msg 1117 58 /mixer/ch1/gain \$1;
#X msg 1127 78 /mixer/ch1/pan \$1;
#X floatatom 1156 36 5 0 0 0 - - -;
#X obj 1117 116 through;
#X floatatom 1137 158 5 0 0 0 - - -;
#X floatatom 1176 156 5 0 0 0 - - -;
#X obj 1137 236 through;
#X msg 1137 178 /mixer/ch2/gain \$1;
#X msg 1147 198 /mixer/ch2/pan \$1;
#X floatatom 1171 265 5 0 0 0 - - -;
#X floatatom 1210 263 5 0 0 0 - - -;
#X obj 1171 343 through;
#X msg 1171 285 /mixer/ch3/gain \$1;
#X msg 1181 305 /mixer/ch3/pan \$1;
#X floatatom 1193 385 5 0 0 0 - - -;
#X floatatom 1232 383 5 0 0 0 - - -;
#X obj 1193 463 through;
#X msg 1193 405 /mixer/ch4/gain \$1;
#X msg 1203 425 /mixer/ch4/pan \$1;
#X floatatom 1230 500 5 0 0 0 - - -;
#X floatatom 1269 498 5 0 0 0 - - -;
#X obj 1230 578 through;
#X msg 1230 520 /mixer/main/gain \$1;
#X msg 1240 540 /mixer/main/pan \$1;
#X msg 1339 32 0.5;
#X msg 1252 29 1;
#X obj 1268 3 loadbang;
#X msg 846 60 /aRoute/drum \$1;
#X connect 0 0 6 0;
#X connect 1 0 0 0;
#X connect 2 0 5 0;
#X connect 3 0 6 0;
#X connect 4 0 3 0;
#X connect 5 0 6 0;
#X connect 6 0 15 0;
#X connect 7 0 8 0;
#X connect 8 0 15 0;
#X connect 9 0 7 0;
#X connect 10 0 11 0;
#X connect 11 0 14 0;
#X connect 12 0 13 0;
#X connect 13 0 14 0;
#X connect 14 0 15 0;
#X connect 16 0 52 0;
#X connect 17 0 15 0;
#X connect 18 0 19 0;
#X connect 19 0 17 0;
#X connect 20 0 22 0;
#X connect 21 0 23 0;
#X connect 22 0 17 0;
#X connect 23 0 17 0;
#X connect 24 0 25 0;
#X connect 25 0 28 0;
#X connect 26 0 28 0;
#X connect 27 0 26 0;
#X connect 28 0 15 0;
#X connect 29 0 32 0;
#X connect 30 0 33 0;
#X connect 31 0 15 0;
#X connect 32 0 31 0;
#X connect 33 0 31 0;
#X connect 34 0 37 0;
#X connect 35 0 38 0;
#X connect 36 0 15 0;
#X connect 37 0 36 0;
#X connect 38 0 36 0;
#X connect 39 0 42 0;
#X connect 40 0 43 0;
#X connect 41 0 15 0;
#X connect 42 0 41 0;
#X connect 43 0 41 0;
#X connect 44 0 47 0;
#X connect 45 0 48 0;
#X connect 46 0 15 0;
#X connect 47 0 46 0;
#X connect 48 0 46 0;
#X connect 49 0 27 0;
#X connect 49 0 30 0;
#X connect 49 0 35 0;
#X connect 49 0 40 0;
#X connect 49 0 45 0;
#X connect 50 0 24 0;
#X connect 50 0 29 0;
#X connect 50 0 34 0;
#X connect 50 0 39 0;
#X connect 50 0 44 0;
#X connect 51 0 50 0;
#X connect 51 0 49 0;
#X connect 52 0 17 0;
#X restore 101 28 pd test;
#N canvas 332 148 450 300 init 0;
#X obj 21 154 declare -path samples;
#X obj 21 124 declare -path abstractions;
#X obj 24 21 declare -path ../../Applications/Pd-extended.app/Contents/Resources/extra/net
;
#X obj 24 71 declare -path ../../Applications/Pd-extended.app/Contents/Resources/extra/osc
;
#X restore 243 38 pd init;
#X obj 15 28 OSC-receiver;
#N canvas 576 186 450 300 OSC-sender 0;
#X obj 28 8 r osc-send;
#X obj 28 87 packOSC;
#X obj 28 128 udpsend 1234;
#X msg 99 94 disconnect;
#X msg 196 96 connect 1234;
#X obj 28 67 spigot;
#X obj 117 38 tgl 15 0 empty empty empty 17 7 0 10 -262144 -1 -1 0
1;
#X obj 116 7 loadbang;
#X connect 0 0 5 0;
#X connect 1 0 2 0;
#X connect 3 0 2 0;
#X connect 4 0 2 0;
#X connect 5 0 1 0;
#X connect 6 0 5 1;
#X connect 7 0 6 0;
#X restore 249 66 pd OSC-sender;
#X connect 0 0 1 0;
#X connect 0 1 1 1;
#X connect 1 0 2 0;
#X connect 3 0 0 0;
#X connect 5 0 0 0;
