#N canvas 448 231 776 411 10;
#X obj 44 149 spigot~;
#X obj 44 46 inlet~;
#X obj 386 314 outlet~;
#X text 48 19 drum;
#X text 384 336 delay;
#X obj 62 316 outlet~;
#X obj 129 149 spigot~;
#X obj 321 310 outlet~;
#X text 319 332 phaser;
#X obj 314 149 spigot~;
#X obj 314 36 inlet~;
#X obj 146 316 outlet~;
#X obj 399 149 spigot~;
#X text 318 9 synth;
#X obj 450 13 inlet;
#X obj 450 40 OSCroute /aRoute;
#X obj 554 317 outlet;
#X obj 83 123 OSCroute /delay /phaser;
#X obj 353 121 OSCroute /delay /phaser;
#X obj 83 87 OSCroute /drum;
#X obj 353 89 OSCroute /synth;
#X text 57 340 drum;
#X text 141 340 synth;
#X obj 62 282 *~ 0.5;
#X obj 147 286 *~ 0.5;
#X obj 321 286 *~ 0.5;
#X obj 385 292 *~ 0.5;
#X floatatom 97 167 5 0 0 0 - - -;
#X floatatom 202 162 5 0 0 0 - - -;
#X connect 0 0 23 0;
#X connect 0 1 25 0;
#X connect 1 0 0 0;
#X connect 1 0 6 0;
#X connect 6 0 23 0;
#X connect 6 1 26 0;
#X connect 9 0 24 0;
#X connect 9 1 25 0;
#X connect 10 0 9 0;
#X connect 10 0 12 0;
#X connect 12 0 24 0;
#X connect 12 1 26 0;
#X connect 14 0 15 0;
#X connect 15 0 19 0;
#X connect 15 1 16 0;
#X connect 17 0 0 1;
#X connect 17 0 27 0;
#X connect 17 1 6 1;
#X connect 17 1 28 0;
#X connect 18 0 9 1;
#X connect 18 1 12 1;
#X connect 19 0 17 0;
#X connect 19 1 20 0;
#X connect 20 0 18 0;
#X connect 23 0 5 0;
#X connect 24 0 11 0;
#X connect 25 0 7 0;
#X connect 26 0 2 0;
