#N canvas 50 23 868 466 10;
#X obj 456 191 soundfiler;
#N canvas 0 22 450 278 (subpatch) 0;
#X array kik 20672 float 2;
#X coords 0 1 20672 -1 200 140 1;
#X restore -23 306 graph;
#N canvas 0 22 450 278 (subpatch) 0;
#X array snare 88200 float 2;
#X coords 0 1 88200 -1 200 140 1;
#X restore 198 308 graph;
#N canvas 0 22 450 278 (subpatch) 0;
#X array hh 11190 float 2;
#X coords 0 1 11190 -1 200 140 1;
#X restore 410 307 graph;
#N canvas 0 22 450 278 (subpatch) 0;
#X array ft 6542 float 2;
#X coords 0 1 6542 -1 200 140 1;
#X restore 620 307 graph;
#X msg 456 81 read -resize sample/kik.wav kik;
#X msg 473 106 read -resize sample/snare.aif snare;
#X floatatom 456 215 5 0 0 1 N.Sample - -;
#X text 261 283 88200 sample;
#X text 25 286 20672 sample;
#X obj -22 24 inlet;
#N canvas 1022 91 347 328 kik 0;
#X obj 258 96 tgl 15 0 empty empty empty 17 7 0 10 -262144 -1 -1 0
1;
#X obj 19 221 vline~;
#X obj 19 244 tabread4~ kik;
#X msg 19 197 0 \, 20672 468;
#X floatatom 19 34 5 0 0 0 - - -;
#X obj 19 65 sel 0 1 2 3;
#X obj 19 164 spigot;
#X obj 70 164 spigot;
#X obj 120 164 spigot;
#X obj 170 164 spigot;
#X obj 121 96 tgl 15 0 empty empty empty 17 7 0 10 -262144 -1 -1 0
1;
#X obj 166 96 tgl 15 0 empty empty empty 17 7 0 10 -262144 -1 -1 0
1;
#X obj 212 96 tgl 15 0 empty empty empty 17 7 0 10 -262144 -1 -1 0
1;
#X obj 121 75 OSCroute /one /two /three /four;
#X obj 19 275 outlet~;
#X obj 19 4 inlet;
#X obj 121 9 inlet;
#X obj 121 46 OSCroute /kik;
#X obj 286 251 outlet;
#X connect 0 0 9 1;
#X connect 1 0 2 0;
#X connect 2 0 14 0;
#X connect 3 0 1 0;
#X connect 4 0 5 0;
#X connect 5 0 6 0;
#X connect 5 1 7 0;
#X connect 5 2 8 0;
#X connect 5 3 9 0;
#X connect 6 0 3 0;
#X connect 7 0 3 0;
#X connect 8 0 3 0;
#X connect 9 0 3 0;
#X connect 10 0 6 1;
#X connect 11 0 7 1;
#X connect 12 0 8 1;
#X connect 13 0 10 0;
#X connect 13 1 11 0;
#X connect 13 2 12 0;
#X connect 13 3 0 0;
#X connect 15 0 4 0;
#X connect 16 0 17 0;
#X connect 17 0 13 0;
#X connect 17 1 18 0;
#X restore -21 182 pd kik;
#N canvas 738 352 347 328 snare 0;
#X obj 258 96 tgl 15 0 empty empty empty 17 7 0 10 -262144 -1 -1 0
1;
#X obj 19 221 vline~;
#X floatatom 19 34 5 0 0 0 - - -;
#X obj 19 65 sel 0 1 2 3;
#X obj 19 164 spigot;
#X obj 70 164 spigot;
#X obj 120 164 spigot;
#X obj 170 164 spigot;
#X obj 121 96 tgl 15 0 empty empty empty 17 7 0 10 -262144 -1 -1 0
1;
#X obj 166 96 tgl 15 0 empty empty empty 17 7 0 10 -262144 -1 -1 0
1;
#X obj 212 96 tgl 15 0 empty empty empty 17 7 0 10 -262144 -1 -1 0
1;
#X obj 121 75 OSCroute /one /two /three /four;
#X obj 19 275 outlet~;
#X obj 19 4 inlet;
#X obj 121 9 inlet;
#X msg 19 197 0 \, 88200 2000;
#X obj 19 244 tabread4~ snare;
#X obj 121 44 OSCroute /snare;
#X obj 277 195 outlet;
#X connect 0 0 7 1;
#X connect 1 0 16 0;
#X connect 2 0 3 0;
#X connect 3 0 4 0;
#X connect 3 1 5 0;
#X connect 3 2 6 0;
#X connect 3 3 7 0;
#X connect 4 0 15 0;
#X connect 5 0 15 0;
#X connect 6 0 15 0;
#X connect 7 0 15 0;
#X connect 8 0 4 1;
#X connect 9 0 5 1;
#X connect 10 0 6 1;
#X connect 11 0 8 0;
#X connect 11 1 9 0;
#X connect 11 2 10 0;
#X connect 11 3 0 0;
#X connect 13 0 2 0;
#X connect 14 0 17 0;
#X connect 15 0 1 0;
#X connect 16 0 12 0;
#X connect 17 0 11 0;
#X connect 17 1 18 0;
#X restore 43 182 pd snare;
#N canvas 331 476 450 300 tempo 0;
#X obj 19 14 loadbang;
#X obj 20 77 tgl 15 0 empty empty empty 17 7 0 10 -262144 -1 -1 1 1
;
#X obj 20 101 metro 500;
#X msg 18 151 1;
#X obj 22 174 +;
#X obj 62 179 expr if($f1<4 \, $f1 \, 0);
#X msg 227 56 0;
#X obj 134 30 t b f b;
#X obj 134 54 delay 20;
#X msg 20 52 1;
#X obj 62 223 outlet;
#X obj 140 -74 inlet;
#X obj 141 -46 OSCroute /tempo;
#X obj 338 66 outlet;
#X obj 139 5 * 1000;
#X obj 139 -19 expr 60/$f1;
#X floatatom 239 12 5 0 0 0 - - -;
#X connect 0 0 9 0;
#X connect 1 0 2 0;
#X connect 2 0 3 0;
#X connect 3 0 4 0;
#X connect 4 0 5 0;
#X connect 5 0 4 1;
#X connect 5 0 10 0;
#X connect 6 0 1 0;
#X connect 7 0 8 0;
#X connect 7 1 2 1;
#X connect 7 2 6 0;
#X connect 8 0 9 0;
#X connect 9 0 1 0;
#X connect 11 0 12 0;
#X connect 12 0 15 0;
#X connect 12 1 13 0;
#X connect 14 0 7 0;
#X connect 14 0 16 0;
#X connect 15 0 14 0;
#X restore -22 90 pd tempo;
#N canvas 861 341 347 328 hh 0;
#X obj 258 96 tgl 15 0 empty empty empty 17 7 0 10 -262144 -1 -1 0
1;
#X obj 19 221 vline~;
#X floatatom 19 34 5 0 0 0 - - -;
#X obj 19 65 sel 0 1 2 3;
#X obj 19 164 spigot;
#X obj 70 164 spigot;
#X obj 120 164 spigot;
#X obj 170 164 spigot;
#X obj 121 96 tgl 15 0 empty empty empty 17 7 0 10 -262144 -1 -1 0
1;
#X obj 166 96 tgl 15 0 empty empty empty 17 7 0 10 -262144 -1 -1 0
1;
#X obj 212 96 tgl 15 0 empty empty empty 17 7 0 10 -262144 -1 -1 0
1;
#X obj 121 75 OSCroute /one /two /three /four;
#X obj 19 275 outlet~;
#X obj 19 4 inlet;
#X obj 121 9 inlet;
#X obj 19 244 tabread4~ hh;
#X msg 19 197 0 \, 11190 253;
#X obj 293 186 outlet;
#X obj 122 40 OSCroute /hh;
#X connect 0 0 7 1;
#X connect 1 0 15 0;
#X connect 2 0 3 0;
#X connect 3 0 4 0;
#X connect 3 1 5 0;
#X connect 3 2 6 0;
#X connect 3 3 7 0;
#X connect 4 0 16 0;
#X connect 5 0 16 0;
#X connect 6 0 16 0;
#X connect 7 0 16 0;
#X connect 8 0 4 1;
#X connect 9 0 5 1;
#X connect 10 0 6 1;
#X connect 11 0 8 0;
#X connect 11 1 9 0;
#X connect 11 2 10 0;
#X connect 11 3 0 0;
#X connect 13 0 2 0;
#X connect 14 0 18 0;
#X connect 15 0 12 0;
#X connect 16 0 1 0;
#X connect 18 0 11 0;
#X connect 18 1 17 0;
#X restore 113 182 pd hh;
#N canvas 824 348 347 328 ft 0;
#X obj 258 96 tgl 15 0 empty empty empty 17 7 0 10 -262144 -1 -1 0
1;
#X obj 19 221 vline~;
#X floatatom 19 34 5 0 0 0 - - -;
#X obj 19 65 sel 0 1 2 3;
#X obj 19 164 spigot;
#X obj 70 164 spigot;
#X obj 120 164 spigot;
#X obj 170 164 spigot;
#X obj 121 96 tgl 15 0 empty empty empty 17 7 0 10 -262144 -1 -1 0
1;
#X obj 166 96 tgl 15 0 empty empty empty 17 7 0 10 -262144 -1 -1 0
1;
#X obj 212 96 tgl 15 0 empty empty empty 17 7 0 10 -262144 -1 -1 0
1;
#X obj 121 75 OSCroute /one /two /three /four;
#X obj 19 275 outlet~;
#X obj 19 4 inlet;
#X obj 121 9 inlet;
#X msg 19 197 0 \, 6542 148;
#X obj 284 165 outlet;
#X obj 19 244 tabread4~ ft;
#X obj 121 48 OSCroute /ft;
#X connect 0 0 7 1;
#X connect 1 0 17 0;
#X connect 2 0 3 0;
#X connect 3 0 4 0;
#X connect 3 1 5 0;
#X connect 3 2 6 0;
#X connect 3 3 7 0;
#X connect 4 0 15 0;
#X connect 5 0 15 0;
#X connect 6 0 15 0;
#X connect 7 0 15 0;
#X connect 8 0 4 1;
#X connect 9 0 5 1;
#X connect 10 0 6 1;
#X connect 11 0 8 0;
#X connect 11 1 9 0;
#X connect 11 2 10 0;
#X connect 11 3 0 0;
#X connect 13 0 2 0;
#X connect 14 0 18 0;
#X connect 15 0 1 0;
#X connect 17 0 12 0;
#X connect 18 0 11 0;
#X connect 18 1 16 0;
#X restore 163 182 pd ft;
#X obj -22 116 t f f f f;
#X obj 456 27 loadbang;
#X obj 456 48 t b b b b;
#X msg 507 159 read -resize sample/ft.wav ft;
#X msg 490 134 read -resize sample/hh.wav hh;
#X floatatom 456 267 5 0 0 1 Time - -;
#X obj 456 241 expr int((1/(44100/$f1))*1000);
#X obj -22 47 OSCroute /drum;
#X obj 288 252 outlet;
#X text 333 251 rejected data;
#N canvas 365 122 252 210 test 0;
#X obj 157 55 tgl 15 0 empty empty empty 17 7 0 10 -262144 -1 -1 0
1;
#N canvas 513 554 450 300 kik 0;
#X msg 270 126 /drum/kik/two \$1;
#X msg 290 166 /drum/kik/four \$1;
#X obj 256 76 inlet;
#X obj 296 75 inlet;
#X obj 338 81 inlet;
#X obj 382 78 inlet;
#X floatatom 195 75 5 0 0 0 - - -;
#X obj 173 209 outlet;
#X msg 239 106 /drum/kik/one \$1;
#X msg 280 146 /drum/kik/three \$1;
#X connect 0 0 7 0;
#X connect 1 0 7 0;
#X connect 2 0 8 0;
#X connect 2 0 6 0;
#X connect 3 0 0 0;
#X connect 4 0 9 0;
#X connect 5 0 1 0;
#X connect 8 0 7 0;
#X connect 9 0 7 0;
#X restore 67 71 pd kik;
#X obj 177 55 tgl 15 0 empty empty empty 17 7 0 10 -262144 -1 -1 0
1;
#X obj 197 55 tgl 15 0 empty empty empty 17 7 0 10 -262144 -1 -1 0
1;
#X obj 217 55 tgl 15 0 empty empty empty 17 7 0 10 -262144 -1 -1 0
1;
#X obj 157 76 tgl 15 0 empty empty empty 17 7 0 10 -262144 -1 -1 0
1;
#X obj 177 76 tgl 15 0 empty empty empty 17 7 0 10 -262144 -1 -1 0
1;
#X obj 197 76 tgl 15 0 empty empty empty 17 7 0 10 -262144 -1 -1 0
1;
#X obj 217 76 tgl 15 0 empty empty empty 17 7 0 10 -262144 -1 -1 0
1;
#X obj 157 98 tgl 15 0 empty empty empty 17 7 0 10 -262144 -1 -1 0
1;
#X obj 177 98 tgl 15 0 empty empty empty 17 7 0 10 -262144 -1 -1 0
1;
#X obj 197 98 tgl 15 0 empty empty empty 17 7 0 10 -262144 -1 -1 0
1;
#X obj 217 98 tgl 15 0 empty empty empty 17 7 0 10 -262144 -1 -1 0
1;
#X obj 157 121 tgl 15 0 empty empty empty 17 7 0 10 -262144 -1 -1 0
1;
#X obj 177 121 tgl 15 0 empty empty empty 17 7 0 10 -262144 -1 -1 0
1;
#X obj 197 121 tgl 15 0 empty empty empty 17 7 0 10 -262144 -1 -1 0
1;
#X obj 217 121 tgl 15 0 empty empty empty 17 7 0 10 -262144 -1 -1 0
1;
#N canvas 513 554 450 300 snare 0;
#X obj 256 76 inlet;
#X obj 296 75 inlet;
#X obj 338 81 inlet;
#X obj 382 78 inlet;
#X floatatom 195 75 5 0 0 0 - - -;
#X obj 173 209 outlet;
#X msg 239 106 /drum/snare/one \$1;
#X msg 270 126 /drum/snare/two \$1;
#X msg 290 166 /drum/snare/four \$1;
#X msg 280 146 /drum/snare/three \$1;
#X connect 0 0 6 0;
#X connect 0 0 4 0;
#X connect 1 0 7 0;
#X connect 2 0 9 0;
#X connect 3 0 8 0;
#X connect 6 0 5 0;
#X connect 7 0 5 0;
#X connect 8 0 5 0;
#X connect 9 0 5 0;
#X restore 67 92 pd snare;
#N canvas 513 554 450 300 hh 0;
#X obj 256 76 inlet;
#X obj 296 75 inlet;
#X obj 338 81 inlet;
#X obj 382 78 inlet;
#X floatatom 195 75 5 0 0 0 - - -;
#X obj 173 209 outlet;
#X msg 239 106 /drum/hh/one \$1;
#X msg 270 126 /drum/hh/two \$1;
#X msg 280 146 /drum/hh/three \$1;
#X msg 290 166 /drum/hh/four \$1;
#X connect 0 0 6 0;
#X connect 0 0 4 0;
#X connect 1 0 7 0;
#X connect 2 0 8 0;
#X connect 3 0 9 0;
#X connect 6 0 5 0;
#X connect 7 0 5 0;
#X connect 8 0 5 0;
#X connect 9 0 5 0;
#X restore 67 114 pd hh;
#N canvas 513 554 450 300 ft 0;
#X obj 256 76 inlet;
#X obj 296 75 inlet;
#X obj 338 81 inlet;
#X obj 382 78 inlet;
#X floatatom 195 75 5 0 0 0 - - -;
#X obj 173 209 outlet;
#X msg 239 106 /drum/ft/one \$1;
#X msg 270 126 /drum/ft/two \$1;
#X msg 280 146 /drum/ft/three \$1;
#X msg 290 166 /drum/ft/four \$1;
#X connect 0 0 6 0;
#X connect 0 0 4 0;
#X connect 1 0 7 0;
#X connect 2 0 8 0;
#X connect 3 0 9 0;
#X connect 6 0 5 0;
#X connect 7 0 5 0;
#X connect 8 0 5 0;
#X connect 9 0 5 0;
#X restore 67 137 pd ft;
#X msg 46 40 /drum/tempo \$1;
#X floatatom 46 16 5 0 0 0 bpm - -;
#X obj 9 178 outlet;
#X connect 0 0 1 0;
#X connect 1 0 22 0;
#X connect 2 0 1 1;
#X connect 3 0 1 2;
#X connect 4 0 1 3;
#X connect 5 0 17 0;
#X connect 6 0 17 1;
#X connect 7 0 17 2;
#X connect 8 0 17 3;
#X connect 9 0 18 0;
#X connect 10 0 18 1;
#X connect 11 0 18 2;
#X connect 12 0 18 3;
#X connect 13 0 19 0;
#X connect 14 0 19 1;
#X connect 15 0 19 2;
#X connect 16 0 19 3;
#X connect 17 0 22 0;
#X connect 18 0 22 0;
#X connect 19 0 22 0;
#X connect 20 0 22 0;
#X connect 21 0 20 0;
#X restore 114 16 pd test;
#X obj -21 251 outlet~;
#X connect 0 0 7 0;
#X connect 5 0 0 0;
#X connect 6 0 0 0;
#X connect 7 0 22 0;
#X connect 10 0 23 0;
#X connect 11 0 27 0;
#X connect 11 1 12 1;
#X connect 12 0 27 0;
#X connect 12 1 14 1;
#X connect 13 0 16 0;
#X connect 13 1 11 1;
#X connect 14 0 27 0;
#X connect 14 1 15 1;
#X connect 15 0 27 0;
#X connect 16 0 11 0;
#X connect 16 1 12 0;
#X connect 16 2 14 0;
#X connect 16 3 15 0;
#X connect 17 0 18 0;
#X connect 18 0 5 0;
#X connect 18 1 6 0;
#X connect 18 2 20 0;
#X connect 18 3 19 0;
#X connect 19 0 0 0;
#X connect 20 0 0 0;
#X connect 22 0 21 0;
#X connect 23 0 13 0;
#X connect 23 1 24 0;
#X connect 26 0 23 0;
