#N canvas 202 102 904 478 10;
#X obj 456 141 soundfiler;
#N canvas 0 22 450 278 (subpatch) 0;
#X array kik 20672 float 2;
#X coords 0 1 20672 -1 200 140 1;
#X restore -23 256 graph;
#N canvas 0 22 450 278 (subpatch) 0;
#X array snare 88200 float 2;
#X coords 0 1 88200 -1 200 140 1;
#X restore 198 258 graph;
#N canvas 0 22 450 278 (subpatch) 0;
#X array hh 5061 float 2;
#X coords 0 1 5061 -1 200 140 1;
#X restore 410 257 graph;
#N canvas 0 22 450 278 (subpatch) 0;
#X array ft 20672 float 2;
#X coords 0 1 20672 -1 200 140 1;
#X restore 620 257 graph;
#X msg 456 31 read -resize sample/kik.wav kik;
#X msg 473 56 read -resize sample/snare.aif snare;
#X floatatom 456 165 5 0 0 1 N.Sample - -;
#X text 261 233 88200 sample;
#X text 25 236 20672 sample;
#X obj -22 -26 inlet;
#N canvas 291 393 347 328 kik 0;
#X obj 258 96 tgl 15 0 empty empty empty 17 7 0 10 -262144 -1 -1 0
1;
#X obj 19 221 vline~;
#X obj 19 244 tabread4~ kik;
#X msg 19 197 0 \, 20672 468;
#X floatatom 19 34 5 0 0 0 - - -;
#X obj 19 65 sel 0 1 2 3;
#X obj 19 164 spigot;
#X obj 70 164 spigot;
#X obj 120 164 spigot;
#X obj 170 164 spigot;
#X obj 121 96 tgl 15 0 empty empty empty 17 7 0 10 -262144 -1 -1 1
1;
#X obj 166 96 tgl 15 0 empty empty empty 17 7 0 10 -262144 -1 -1 0
1;
#X obj 212 96 tgl 15 0 empty empty empty 17 7 0 10 -262144 -1 -1 1
1;
#X obj 121 75 OSCroute /one /two /three /four;
#X obj 19 275 outlet~;
#X obj 19 4 inlet;
#X obj 121 9 inlet;
#X connect 0 0 9 1;
#X connect 1 0 2 0;
#X connect 2 0 14 0;
#X connect 3 0 1 0;
#X connect 4 0 5 0;
#X connect 5 0 6 0;
#X connect 5 1 7 0;
#X connect 5 2 8 0;
#X connect 5 3 9 0;
#X connect 6 0 3 0;
#X connect 7 0 3 0;
#X connect 8 0 3 0;
#X connect 9 0 3 0;
#X connect 10 0 6 1;
#X connect 11 0 7 1;
#X connect 12 0 8 1;
#X connect 13 0 10 0;
#X connect 13 1 11 0;
#X connect 13 2 12 0;
#X connect 13 3 0 0;
#X connect 15 0 4 0;
#X connect 16 0 13 0;
#X restore -21 132 pd kik;
#N canvas 738 352 347 328 snare 0;
#X obj 258 96 tgl 15 0 empty empty empty 17 7 0 10 -262144 -1 -1 1
1;
#X obj 19 221 vline~;
#X floatatom 19 34 5 0 0 0 - - -;
#X obj 19 65 sel 0 1 2 3;
#X obj 19 164 spigot;
#X obj 70 164 spigot;
#X obj 120 164 spigot;
#X obj 170 164 spigot;
#X obj 121 96 tgl 15 0 empty empty empty 17 7 0 10 -262144 -1 -1 0
1;
#X obj 166 96 tgl 15 0 empty empty empty 17 7 0 10 -262144 -1 -1 1
1;
#X obj 212 96 tgl 15 0 empty empty empty 17 7 0 10 -262144 -1 -1 0
1;
#X obj 121 75 OSCroute /one /two /three /four;
#X obj 19 275 outlet~;
#X obj 19 4 inlet;
#X obj 121 9 inlet;
#X msg 19 197 0 \, 88200 2000;
#X obj 19 244 tabread4~ snare;
#X connect 0 0 7 1;
#X connect 1 0 16 0;
#X connect 2 0 3 0;
#X connect 3 0 4 0;
#X connect 3 1 5 0;
#X connect 3 2 6 0;
#X connect 3 3 7 0;
#X connect 4 0 15 0;
#X connect 5 0 15 0;
#X connect 6 0 15 0;
#X connect 7 0 15 0;
#X connect 8 0 4 1;
#X connect 9 0 5 1;
#X connect 10 0 6 1;
#X connect 11 0 8 0;
#X connect 11 1 9 0;
#X connect 11 2 10 0;
#X connect 11 3 0 0;
#X connect 13 0 2 0;
#X connect 14 0 11 0;
#X connect 15 0 1 0;
#X connect 16 0 12 0;
#X restore 43 132 pd snare;
#N canvas 481 277 450 300 tempo 1;
#X obj 19 -16 loadbang;
#X obj 20 47 tgl 15 0 empty empty empty 17 7 0 10 -262144 -1 -1 1 1
;
#X obj 20 71 metro 500;
#X msg 18 121 1;
#X obj 22 144 +;
#X obj 62 149 expr if($f1<4 \, $f1 \, 0);
#X floatatom 140 -45 5 0 0 0 - - -;
#X msg 227 26 0;
#X obj 140 -20 t b f b;
#X obj 134 24 delay 20;
#X msg 20 22 1;
#X obj 62 193 outlet;
#X obj 140 -74 inlet;
#X obj 37 37;
#X obj 37 37;
#X connect 0 0 10 0;
#X connect 1 0 2 0;
#X connect 2 0 3 0;
#X connect 3 0 4 0;
#X connect 4 0 5 0;
#X connect 5 0 4 1;
#X connect 5 0 11 0;
#X connect 6 0 8 0;
#X connect 7 0 1 0;
#X connect 8 0 9 0;
#X connect 8 1 2 1;
#X connect 8 2 7 0;
#X connect 9 0 10 0;
#X connect 10 0 1 0;
#X connect 12 0 6 0;
#X restore -22 40 pd tempo;
#N canvas 861 341 347 328 hh 0;
#X obj 258 96 tgl 15 0 empty empty empty 17 7 0 10 -262144 -1 -1 1
1;
#X obj 19 221 vline~;
#X floatatom 19 34 5 0 0 0 - - -;
#X obj 19 65 sel 0 1 2 3;
#X obj 19 164 spigot;
#X obj 70 164 spigot;
#X obj 120 164 spigot;
#X obj 170 164 spigot;
#X obj 121 96 tgl 15 0 empty empty empty 17 7 0 10 -262144 -1 -1 1
1;
#X obj 166 96 tgl 15 0 empty empty empty 17 7 0 10 -262144 -1 -1 1
1;
#X obj 212 96 tgl 15 0 empty empty empty 17 7 0 10 -262144 -1 -1 1
1;
#X obj 121 75 OSCroute /one /two /three /four;
#X obj 19 275 outlet~;
#X obj 19 4 inlet;
#X obj 121 9 inlet;
#X obj 19 244 tabread4~ hh;
#X msg 19 197 0 \, 5061 114;
#X connect 0 0 7 1;
#X connect 1 0 15 0;
#X connect 2 0 3 0;
#X connect 3 0 4 0;
#X connect 3 1 5 0;
#X connect 3 2 6 0;
#X connect 3 3 7 0;
#X connect 4 0 16 0;
#X connect 5 0 16 0;
#X connect 6 0 16 0;
#X connect 7 0 16 0;
#X connect 8 0 4 1;
#X connect 9 0 5 1;
#X connect 10 0 6 1;
#X connect 11 0 8 0;
#X connect 11 1 9 0;
#X connect 11 2 10 0;
#X connect 11 3 0 0;
#X connect 13 0 2 0;
#X connect 14 0 11 0;
#X connect 15 0 12 0;
#X connect 16 0 1 0;
#X restore 113 132 pd hh;
#X obj -22 -3 OSCroute /drum/tempo /drum/kik /drum/snare /drum/hh /drum/ft
;
#N canvas 738 352 347 328 ft 0;
#X obj 258 96 tgl 15 0 empty empty empty 17 7 0 10 -262144 -1 -1 0
1;
#X obj 19 221 vline~;
#X floatatom 19 34 5 0 0 0 - - -;
#X obj 19 65 sel 0 1 2 3;
#X obj 19 164 spigot;
#X obj 70 164 spigot;
#X obj 120 164 spigot;
#X obj 170 164 spigot;
#X obj 121 96 tgl 15 0 empty empty empty 17 7 0 10 -262144 -1 -1 0
1;
#X obj 166 96 tgl 15 0 empty empty empty 17 7 0 10 -262144 -1 -1 0
1;
#X obj 212 96 tgl 15 0 empty empty empty 17 7 0 10 -262144 -1 -1 0
1;
#X obj 121 75 OSCroute /one /two /three /four;
#X obj 19 275 outlet~;
#X obj 19 4 inlet;
#X obj 121 9 inlet;
#X msg 19 197 0 \, 88200 2000;
#X obj 19 244 tabread4~ snare;
#X connect 0 0 7 1;
#X connect 1 0 16 0;
#X connect 2 0 3 0;
#X connect 3 0 4 0;
#X connect 3 1 5 0;
#X connect 3 2 6 0;
#X connect 3 3 7 0;
#X connect 4 0 15 0;
#X connect 5 0 15 0;
#X connect 6 0 15 0;
#X connect 7 0 15 0;
#X connect 8 0 4 1;
#X connect 9 0 5 1;
#X connect 10 0 6 1;
#X connect 11 0 8 0;
#X connect 11 1 9 0;
#X connect 11 2 10 0;
#X connect 11 3 0 0;
#X connect 13 0 2 0;
#X connect 14 0 11 0;
#X connect 15 0 1 0;
#X connect 16 0 12 0;
#X restore 163 132 pd ft;
#X obj -22 66 t f f f f;
#X obj 456 -23 loadbang;
#X obj 456 -2 t b b b b;
#X msg 507 109 read -resize sample/ft.wav ft;
#X msg 490 84 read -resize sample/hh.wav hh;
#X obj -21 201 dac~;
#X text 495 162;
#X floatatom 456 217 5 0 0 1 Time - -;
#X obj 456 191 expr int((1/(44100/$f1))*1000);
#X connect 0 0 7 0;
#X connect 5 0 0 0;
#X connect 6 0 0 0;
#X connect 7 0 25 0;
#X connect 10 0 15 0;
#X connect 11 0 22 0;
#X connect 12 0 22 0;
#X connect 13 0 17 0;
#X connect 14 0 22 0;
#X connect 15 0 13 0;
#X connect 15 1 11 1;
#X connect 15 2 12 1;
#X connect 15 3 14 1;
#X connect 15 4 16 1;
#X connect 16 0 22 0;
#X connect 17 0 11 0;
#X connect 17 1 12 0;
#X connect 17 2 14 0;
#X connect 17 3 16 0;
#X connect 18 0 19 0;
#X connect 19 0 5 0;
#X connect 19 1 6 0;
#X connect 19 2 21 0;
#X connect 19 3 20 0;
#X connect 20 0 0 0;
#X connect 21 0 0 0;
#X connect 25 0 24 0;
