#N canvas 2 73 404 322 10;
#X obj 15 38 drum;
#X obj 149 65 synth;
#X obj 152 182 phaser;
#X obj 220 213 modules/delay;
#X obj 15 16 OSC-receiver;
#X obj 14 249 mixer ____________________________________________________
;
#X obj 12 114 audio-routing _________________________________;
#X obj 10 290 dac~ 1 2;
#N canvas 420 23 1438 738 test 1;
#X obj 146 77 tgl 15 0 empty empty empty 17 7 0 10 -262144 -1 -1 1
1;
#N canvas 513 554 450 300 kik 0;
#X msg 270 126 /drum/kik/two \$1;
#X msg 290 166 /drum/kik/four \$1;
#X obj 256 76 inlet;
#X obj 296 75 inlet;
#X obj 338 81 inlet;
#X obj 382 78 inlet;
#X floatatom 195 75 5 0 0 0 - - -;
#X obj 173 209 outlet;
#X msg 239 106 /drum/kik/one \$1;
#X msg 280 146 /drum/kik/three \$1;
#X connect 0 0 7 0;
#X connect 1 0 7 0;
#X connect 2 0 8 0;
#X connect 2 0 6 0;
#X connect 3 0 0 0;
#X connect 4 0 9 0;
#X connect 5 0 1 0;
#X connect 8 0 7 0;
#X connect 9 0 7 0;
#X restore 56 93 pd kik;
#X obj 166 77 tgl 15 0 empty empty empty 17 7 0 10 -262144 -1 -1 0
1;
#X obj 186 77 tgl 15 0 empty empty empty 17 7 0 10 -262144 -1 -1 0
1;
#X obj 206 77 tgl 15 0 empty empty empty 17 7 0 10 -262144 -1 -1 1
1;
#X obj 146 98 tgl 15 0 empty empty empty 17 7 0 10 -262144 -1 -1 0
1;
#X obj 166 98 tgl 15 0 empty empty empty 17 7 0 10 -262144 -1 -1 1
1;
#X obj 186 98 tgl 15 0 empty empty empty 17 7 0 10 -262144 -1 -1 1
1;
#X obj 206 98 tgl 15 0 empty empty empty 17 7 0 10 -262144 -1 -1 0
1;
#X obj 146 120 tgl 15 0 empty empty empty 17 7 0 10 -262144 -1 -1 0
1;
#X obj 166 120 tgl 15 0 empty empty empty 17 7 0 10 -262144 -1 -1 0
1;
#X obj 186 120 tgl 15 0 empty empty empty 17 7 0 10 -262144 -1 -1 1
1;
#X obj 206 120 tgl 15 0 empty empty empty 17 7 0 10 -262144 -1 -1 0
1;
#X obj 146 143 tgl 15 0 empty empty empty 17 7 0 10 -262144 -1 -1 0
1;
#X obj 166 143 tgl 15 0 empty empty empty 17 7 0 10 -262144 -1 -1 1
1;
#X obj 186 143 tgl 15 0 empty empty empty 17 7 0 10 -262144 -1 -1 0
1;
#X obj 206 143 tgl 15 0 empty empty empty 17 7 0 10 -262144 -1 -1 1
1;
#N canvas 513 554 450 300 snare 0;
#X obj 256 76 inlet;
#X obj 296 75 inlet;
#X obj 338 81 inlet;
#X obj 382 78 inlet;
#X floatatom 195 75 5 0 0 0 - - -;
#X obj 173 209 outlet;
#X msg 239 106 /drum/snare/one \$1;
#X msg 270 126 /drum/snare/two \$1;
#X msg 290 166 /drum/snare/four \$1;
#X msg 280 146 /drum/snare/three \$1;
#X connect 0 0 6 0;
#X connect 0 0 4 0;
#X connect 1 0 7 0;
#X connect 2 0 9 0;
#X connect 3 0 8 0;
#X connect 6 0 5 0;
#X connect 7 0 5 0;
#X connect 8 0 5 0;
#X connect 9 0 5 0;
#X restore 56 114 pd snare;
#N canvas 513 554 450 300 hh 0;
#X obj 256 76 inlet;
#X obj 296 75 inlet;
#X obj 338 81 inlet;
#X obj 382 78 inlet;
#X floatatom 195 75 5 0 0 0 - - -;
#X obj 173 209 outlet;
#X msg 239 106 /drum/hh/one \$1;
#X msg 270 126 /drum/hh/two \$1;
#X msg 280 146 /drum/hh/three \$1;
#X msg 290 166 /drum/hh/four \$1;
#X connect 0 0 6 0;
#X connect 0 0 4 0;
#X connect 1 0 7 0;
#X connect 2 0 8 0;
#X connect 3 0 9 0;
#X connect 6 0 5 0;
#X connect 7 0 5 0;
#X connect 8 0 5 0;
#X connect 9 0 5 0;
#X restore 56 136 pd hh;
#N canvas 513 554 450 300 ft 0;
#X obj 256 76 inlet;
#X obj 296 75 inlet;
#X obj 338 81 inlet;
#X obj 382 78 inlet;
#X floatatom 195 75 5 0 0 0 - - -;
#X obj 173 209 outlet;
#X msg 239 106 /drum/ft/one \$1;
#X msg 270 126 /drum/ft/two \$1;
#X msg 280 146 /drum/ft/three \$1;
#X msg 290 166 /drum/ft/four \$1;
#X connect 0 0 6 0;
#X connect 0 0 4 0;
#X connect 1 0 7 0;
#X connect 2 0 8 0;
#X connect 3 0 9 0;
#X connect 6 0 5 0;
#X connect 7 0 5 0;
#X connect 8 0 5 0;
#X connect 9 0 5 0;
#X restore 56 159 pd ft;
#X msg 35 62 /drum/tempo \$1;
#X floatatom 35 38 5 0 0 0 bpm - -;
#X obj 35 200 through;
#X msg 250 65 /synth/freq \$1;
#X floatatom 253 40 5 0 0 0 - - -;
#X obj 409 107 tgl 15 0 empty empty empty 17 7 0 10 -262144 -1 -1 0
1;
#X msg 280 133 /synth/timeVar \$1;
#X floatatom 283 98 5 0 0 0 - - -;
#X msg 409 134 /synth/onOff \$1;
#X obj 250 190 through;
#X msg 534 74 /phaser/freq \$1;
#X obj 534 181 through;
#X floatatom 534 37 5 0 0 0 - - -;
#X floatatom 682 33 5 0 0 0 - - -;
#X msg 682 70 /delay/time \$1;
#X obj 729 37 tgl 15 0 empty empty empty 17 7 0 10 -262144 -1 -1 1
1;
#X msg 723 93 /delay/mode \$1;
#X obj 704 168 through;
#X obj 608 689 outlet;
#X obj 846 31 tgl 15 0 empty empty empty 17 7 0 10 -262144 -1 -1 1
1;
#X obj 866 234 through;
#X msg 846 60 /aRoute/drum/delay \$1;
#X obj 865 33 tgl 15 0 empty empty empty 17 7 0 10 -262144 -1 -1 1
1;
#X msg 865 82 /aRoute/drum/phaser \$1;
#X obj 883 108 tgl 15 0 empty empty empty 17 7 0 10 -262144 -1 -1 0
1;
#X obj 902 110 tgl 15 0 empty empty empty 17 7 0 10 -262144 -1 -1 0
1;
#X msg 883 137 /aRoute/synth/delay \$1;
#X msg 902 159 /aRoute/synt/phaser \$1;
#X floatatom 1117 38 5 0 0 0 - - -;
#X msg 1117 58 /mixer/ch1/gain \$1;
#X msg 1127 78 /mixer/ch1/pan \$1;
#X floatatom 1156 36 5 0 0 0 - - -;
#X obj 1117 116 through;
#X floatatom 1137 158 5 0 0 0 - - -;
#X floatatom 1176 156 5 0 0 0 - - -;
#X obj 1137 236 through;
#X msg 1137 178 /mixer/ch2/gain \$1;
#X msg 1147 198 /mixer/ch2/pan \$1;
#X floatatom 1171 265 5 0 0 0 - - -;
#X floatatom 1210 263 5 0 0 0 - - -;
#X obj 1171 343 through;
#X msg 1171 285 /mixer/ch3/gain \$1;
#X msg 1181 305 /mixer/ch3/pan \$1;
#X floatatom 1193 385 5 0 0 0 - - -;
#X floatatom 1232 383 5 0 0 0 - - -;
#X obj 1193 463 through;
#X msg 1193 405 /mixer/ch4/gain \$1;
#X msg 1203 425 /mixer/ch4/pan \$1;
#X floatatom 1230 500 5 0 0 0 - - -;
#X floatatom 1269 498 5 0 0 0 - - -;
#X obj 1230 578 through;
#X msg 1230 520 /mixer/main/gain \$1;
#X msg 1240 540 /mixer/main/pan \$1;
#X msg 1339 32 0.5;
#X msg 1252 29 1;
#X connect 0 0 1 0;
#X connect 1 0 22 0;
#X connect 2 0 1 1;
#X connect 3 0 1 2;
#X connect 4 0 1 3;
#X connect 5 0 17 0;
#X connect 6 0 17 1;
#X connect 7 0 17 2;
#X connect 8 0 17 3;
#X connect 9 0 18 0;
#X connect 10 0 18 1;
#X connect 11 0 18 2;
#X connect 12 0 18 3;
#X connect 13 0 19 0;
#X connect 14 0 19 1;
#X connect 15 0 19 2;
#X connect 16 0 19 3;
#X connect 17 0 22 0;
#X connect 18 0 22 0;
#X connect 19 0 22 0;
#X connect 20 0 22 0;
#X connect 21 0 20 0;
#X connect 22 0 38 0;
#X connect 23 0 29 0;
#X connect 24 0 23 0;
#X connect 25 0 28 0;
#X connect 26 0 29 0;
#X connect 27 0 26 0;
#X connect 28 0 29 0;
#X connect 29 0 38 0;
#X connect 30 0 31 0;
#X connect 31 0 38 0;
#X connect 32 0 30 0;
#X connect 33 0 34 0;
#X connect 34 0 37 0;
#X connect 35 0 36 0;
#X connect 36 0 37 0;
#X connect 37 0 38 0;
#X connect 39 0 41 0;
#X connect 40 0 38 0;
#X connect 41 0 40 0;
#X connect 42 0 43 0;
#X connect 43 0 40 0;
#X connect 44 0 46 0;
#X connect 45 0 47 0;
#X connect 46 0 40 0;
#X connect 47 0 40 0;
#X connect 48 0 49 0;
#X connect 49 0 52 0;
#X connect 50 0 52 0;
#X connect 51 0 50 0;
#X connect 52 0 38 0;
#X connect 53 0 56 0;
#X connect 54 0 57 0;
#X connect 55 0 38 0;
#X connect 56 0 55 0;
#X connect 57 0 55 0;
#X connect 58 0 61 0;
#X connect 59 0 62 0;
#X connect 60 0 38 0;
#X connect 61 0 60 0;
#X connect 62 0 60 0;
#X connect 63 0 66 0;
#X connect 64 0 67 0;
#X connect 65 0 38 0;
#X connect 66 0 65 0;
#X connect 67 0 65 0;
#X connect 68 0 71 0;
#X connect 69 0 72 0;
#X connect 70 0 38 0;
#X connect 71 0 70 0;
#X connect 72 0 70 0;
#X connect 73 0 51 0;
#X connect 73 0 54 0;
#X connect 73 0 59 0;
#X connect 73 0 64 0;
#X connect 73 0 69 0;
#X connect 74 0 48 0;
#X connect 74 0 53 0;
#X connect 74 0 58 0;
#X connect 74 0 63 0;
#X connect 74 0 68 0;
#X restore 101 16 pd test;
#X connect 0 0 6 0;
#X connect 0 1 1 0;
#X connect 1 0 6 1;
#X connect 1 1 6 2;
#X connect 2 0 5 2;
#X connect 2 1 3 1;
#X connect 3 0 5 3;
#X connect 3 1 5 4;
#X connect 3 2 5 5;
#X connect 4 0 0 0;
#X connect 5 0 7 0;
#X connect 5 1 7 1;
#X connect 6 0 5 0;
#X connect 6 1 5 1;
#X connect 6 2 2 0;
#X connect 6 3 3 0;
#X connect 6 4 2 1;
#X connect 8 0 0 0;
