#N canvas 1526 61 373 474 10;
#X declare -path samples;
#X declare -path abstractions;
#X declare -path /Applications/Pd-extended.app/Contents/Resources/extra/osc
;
#X declare -path /Applications/Pd-extended.app/Contents/Resources/extra/net
;
#N canvas 332 148 450 300 init 0;
#X obj 21 154 declare -path samples;
#X obj 21 124 declare -path abstractions;
#X obj 24 71 declare -path /Applications/Pd-extended.app/Contents/Resources/extra/osc
;
#X obj 24 21 declare -path /Applications/Pd-extended.app/Contents/Resources/extra/net
;
#X restore 120 7 pd init;
#X obj 202 135 OSC-sender;
#X obj 6 8 OSC-receiver;
#X obj 6 34 drum;
#X obj 41 205 pitch_shifter~;
#X obj 7 308 dac~ 1 2;
#X obj 23 167 *~ 0.333;
#X connect 2 0 3 0;
#X connect 2 1 4 1;
#X connect 3 0 6 0;
#X connect 3 2 1 0;
#X connect 4 0 5 0;
#X connect 4 0 5 1;
#X connect 6 0 4 0;
