#N canvas 0 22 398 344 10;
#X obj 18 50 drum;
#X obj 152 77 synth;
#X obj 155 194 phaser;
#X obj 223 225 modules/delay;
#X obj 18 28 OSC-receiver;
#X obj 17 261 mixer ____________________________________________________
;
#X obj 15 126 audio-routing _________________________________;
#X obj 13 302 dac~ 1 2;
#X connect 0 0 6 0;
#X connect 0 1 1 0;
#X connect 1 0 6 1;
#X connect 1 1 6 2;
#X connect 2 0 5 2;
#X connect 2 1 3 1;
#X connect 3 0 5 3;
#X connect 3 1 5 4;
#X connect 3 2 5 5;
#X connect 4 0 0 0;
#X connect 5 0 7 0;
#X connect 5 1 7 1;
#X connect 6 0 5 0;
#X connect 6 1 5 1;
#X connect 6 2 2 0;
#X connect 6 3 3 0;
#X connect 6 4 2 1;
