#N canvas 143 391 1024 386 10;
#X obj 29 108 modules/gain;
#X obj 29 138 modules/panning;
#X obj 29 166 send~ L;
#X obj 116 166 send~ R;
#X obj 24 359 outlet~;
#X obj 25 211 receive~ L;
#X obj 111 359 outlet~;
#X obj 133 211 receive~ R;
#X obj 24 280 modules/gain;
#X obj 24 310 modules/panning;
#X obj 133 280 modules/gain;
#X obj 133 310 modules/panning;
#X obj 29 42 inlet~;
#X obj 693 19 inlet;
#X obj 70 79 route /gain /pan;
#X obj 189 108 modules/gain;
#X obj 189 138 modules/panning;
#X obj 189 166 send~ L;
#X obj 276 166 send~ R;
#X obj 189 42 inlet~;
#X obj 230 79 route /gain /pan;
#X obj 349 108 modules/gain;
#X obj 349 138 modules/panning;
#X obj 349 166 send~ L;
#X obj 436 166 send~ R;
#X obj 349 42 inlet~;
#X obj 390 79 route /gain /pan;
#X obj 519 108 modules/gain;
#X obj 519 138 modules/panning;
#X obj 519 166 send~ L;
#X obj 606 166 send~ R;
#X obj 519 42 inlet~;
#X obj 560 79 route /gain /pan;
#X obj 693 44 routeOSC /ch1 /ch2 /ch3 /ch4;
#X obj 858 332 outlet;
#X text 860 355 Rejected Data;
#X text 736 18 OSC data int;
#X text 28 20 Channel 1;
#X text 187 19 Channel 2;
#X text 349 17 Channel 3;
#X text 518 16 Channel 4;
#X connect 0 0 1 0;
#X connect 1 0 2 0;
#X connect 1 1 3 0;
#X connect 5 0 8 0;
#X connect 7 0 10 0;
#X connect 8 0 9 0;
#X connect 9 0 4 0;
#X connect 9 1 6 0;
#X connect 10 0 11 0;
#X connect 11 0 4 0;
#X connect 11 1 6 0;
#X connect 12 0 0 0;
#X connect 13 0 33 0;
#X connect 14 0 0 1;
#X connect 14 1 1 1;
#X connect 15 0 16 0;
#X connect 16 0 17 0;
#X connect 16 1 18 0;
#X connect 19 0 15 0;
#X connect 20 0 15 1;
#X connect 20 1 16 1;
#X connect 21 0 22 0;
#X connect 22 0 23 0;
#X connect 22 1 24 0;
#X connect 25 0 21 0;
#X connect 26 0 21 1;
#X connect 26 1 22 1;
#X connect 27 0 28 0;
#X connect 28 0 29 0;
#X connect 28 1 30 0;
#X connect 31 0 27 0;
#X connect 32 0 27 1;
#X connect 32 1 28 1;
#X connect 33 0 14 0;
#X connect 33 1 20 0;
#X connect 33 2 26 0;
#X connect 33 3 32 0;
#X connect 33 4 34 0;
