#N canvas 143 391 1024 386 10;
#X obj 29 108 modules/gain;
#X obj 24 309 outlet~;
#X obj 133 309 outlet~;
#X obj 24 280 modules/gain;
#X obj 133 280 modules/gain;
#X obj 29 42 inlet~;
#X obj 817 -15 inlet;
#X obj 70 79 route /gain /pan;
#X obj 189 108 modules/gain;
#X obj 189 42 inlet~;
#X obj 230 79 route /gain /pan;
#X obj 349 108 modules/gain;
#X obj 349 42 inlet~;
#X obj 390 79 route /gain /pan;
#X obj 519 108 modules/gain;
#X obj 519 42 inlet~;
#X obj 560 79 route /gain /pan;
#X obj 894 302 outlet;
#X text 896 325 Rejected Data;
#X text 861 -16 OSC data int;
#X text 28 20 Channel 1;
#X text 187 19 Channel 2;
#X text 349 17 Channel 3;
#X text 518 16 Channel 4;
#X obj 29 138 modules/panning;
#X obj 817 40 OSCroute /ch1 /ch2 /ch3 /ch4 /main;
#X obj 189 138 modules/panning;
#X obj 349 138 modules/panning;
#X obj 624 211 route /gain;
#X obj 633 38 inlet~;
#X obj 639 109 modules/gain;
#X obj 519 138 modules/panning;
#X obj 639 139 modules/panning;
#X obj 817 18 OSCroute /mixer;
#X connect 0 0 24 0;
#X connect 3 0 1 0;
#X connect 4 0 2 0;
#X connect 5 0 0 0;
#X connect 6 0 33 0;
#X connect 7 0 0 1;
#X connect 7 1 24 1;
#X connect 8 0 26 0;
#X connect 9 0 8 0;
#X connect 10 0 8 1;
#X connect 10 1 26 1;
#X connect 11 0 27 0;
#X connect 12 0 11 0;
#X connect 13 0 11 1;
#X connect 13 1 27 1;
#X connect 14 0 31 0;
#X connect 15 0 14 0;
#X connect 16 0 14 1;
#X connect 16 0 30 1;
#X connect 16 1 31 1;
#X connect 16 2 32 1;
#X connect 24 0 3 0;
#X connect 24 1 4 0;
#X connect 25 0 7 0;
#X connect 25 1 10 0;
#X connect 25 2 13 0;
#X connect 25 3 16 0;
#X connect 25 4 28 0;
#X connect 26 0 3 0;
#X connect 26 1 4 0;
#X connect 27 0 3 0;
#X connect 27 1 4 0;
#X connect 28 0 3 1;
#X connect 28 0 4 1;
#X connect 29 0 30 0;
#X connect 30 0 32 0;
#X connect 31 0 3 0;
#X connect 32 1 4 0;
#X connect 33 0 25 0;
#X connect 33 1 17 0;
