#N canvas 215 76 755 568 10;
#X obj 31 511 +~;
#X obj 43 292 delwrite~ G07-del 30;
#X obj 109 491 line~;
#X obj 73 491 *~;
#X obj 103 435 line~;
#X obj 67 435 *~;
#X obj 90 381 line~;
#X obj 54 381 *~;
#X obj 68 321 line~;
#X obj 32 321 *~;
#X obj 289 186 + 1;
#X obj 289 209 mod 4;
#X obj 254 183 f;
#X obj 294 260 random 1000;
#X obj 254 235 t f b;
#X obj 254 137 tgl 15 0 empty empty empty 0 -6 0 8 -262144 -1 -1 0
1;
#X floatatom 357 134 5 10 1000 0 - - -;
#X obj 254 342 route 0 1 2 3;
#X obj 54 355 delread~ G07-del 30;
#X obj 33 265 phasor~ 80;
#X obj 67 409 delread~ G07-del 17;
#X obj 73 465 delread~ G07-del 11;
#X obj 357 159 * 4;
#X obj 294 287 expr 2 * $f1/1000 - 0.7;
#X floatatom 33 242 5 30 1000 0 - - -;
#X obj 254 158 metro 50;
#X obj 254 318 pack 0 0 200;
#X text 33 218 frequency;
#X text 235 117 on/off;
#X text 354 113 time constant (msec);
#X obj 37 38 OSCroute /synth;
#X obj 38 71 OSCroute /freq /onOff /timeVar;
#X obj 37 14 inlet;
#X obj 352 542 outlet;
#N canvas 790 132 450 300 test 0;
#X msg 53 86 /synth/freq \$1;
#X floatatom 56 61 5 0 0 0 - - -;
#X obj 212 128 tgl 15 0 empty empty empty 17 7 0 10 -262144 -1 -1 0
1;
#X msg 83 154 /synth/timeVar \$1;
#X floatatom 86 119 5 0 0 0 - - -;
#X obj 53 211 outlet;
#X msg 212 155 /synth/onOff \$1;
#X connect 0 0 5 0;
#X connect 1 0 0 0;
#X connect 2 0 6 0;
#X connect 3 0 5 0;
#X connect 4 0 3 0;
#X connect 6 0 5 0;
#X restore 86 14 pd test;
#X obj 31 541 outlet~;
#X connect 0 0 35 0;
#X connect 2 0 3 1;
#X connect 3 0 0 1;
#X connect 4 0 5 1;
#X connect 5 0 0 1;
#X connect 6 0 7 1;
#X connect 7 0 0 1;
#X connect 8 0 9 1;
#X connect 9 0 0 0;
#X connect 10 0 11 0;
#X connect 11 0 12 1;
#X connect 12 0 10 0;
#X connect 12 0 14 0;
#X connect 13 0 23 0;
#X connect 14 0 26 0;
#X connect 14 1 13 0;
#X connect 15 0 25 0;
#X connect 16 0 22 0;
#X connect 16 0 25 1;
#X connect 17 0 8 0;
#X connect 17 1 6 0;
#X connect 17 2 4 0;
#X connect 17 3 2 0;
#X connect 18 0 7 0;
#X connect 19 0 1 0;
#X connect 19 0 9 0;
#X connect 20 0 5 0;
#X connect 21 0 3 0;
#X connect 22 0 26 2;
#X connect 23 0 26 1;
#X connect 24 0 19 0;
#X connect 25 0 12 0;
#X connect 26 0 17 0;
#X connect 30 0 31 0;
#X connect 30 1 33 0;
#X connect 31 0 24 0;
#X connect 31 1 15 0;
#X connect 31 2 16 0;
#X connect 32 0 30 0;
#X connect 34 0 30 0;
