#N canvas 307 99 870 587 10;
#X obj 44 319 spigot~;
#X obj 46 49 inlet~;
#X obj 386 474 outlet~;
#X text 48 19 drum;
#X text 384 496 delay;
#X obj 44 466 outlet~;
#X obj 109 346 spigot~;
#X obj 321 470 outlet~;
#X text 319 492 phaser;
#X obj 314 36 inlet~;
#X obj 146 466 outlet~;
#X text 318 9 synth;
#X obj 450 13 inlet;
#X obj 450 40 OSCroute /aRoute;
#X obj 554 317 outlet;
#X obj 83 87 OSCroute /drum;
#X obj 353 89 OSCroute /synth;
#X text 39 490 drum;
#X text 141 490 synth;
#X obj 144 320 tgl 15 0 empty empty empty 17 7 0 10 -262144 -1 -1 1
1;
#X obj 83 294 tgl 15 0 empty empty empty 17 7 0 10 -262144 -1 -1 1
1;
#X msg 104 265 1;
#X msg 72 265 0;
#X msg 148 282 1;
#X msg 178 282 0;
#X obj 314 262 spigot~;
#X obj 379 289 spigot~;
#X obj 414 263 tgl 15 0 empty empty empty 17 7 0 10 -262144 -1 -1 1
1;
#X obj 353 237 tgl 15 0 empty empty empty 17 7 0 10 -262144 -1 -1 1
1;
#X obj 353 138 select 0 1 2;
#X msg 374 208 1;
#X msg 342 208 0;
#X msg 418 225 1;
#X msg 448 225 0;
#X obj 83 195 select 0 1 2;
#X connect 0 0 5 0;
#X connect 0 1 6 0;
#X connect 1 0 0 0;
#X connect 6 0 7 0;
#X connect 6 1 2 0;
#X connect 9 0 25 0;
#X connect 12 0 13 0;
#X connect 13 0 15 0;
#X connect 13 1 14 0;
#X connect 15 0 34 0;
#X connect 15 1 16 0;
#X connect 16 0 29 0;
#X connect 19 0 6 1;
#X connect 20 0 0 1;
#X connect 21 0 20 0;
#X connect 22 0 20 0;
#X connect 23 0 19 0;
#X connect 24 0 19 0;
#X connect 25 0 10 0;
#X connect 25 1 26 0;
#X connect 26 0 7 0;
#X connect 26 1 2 0;
#X connect 27 0 26 1;
#X connect 28 0 25 1;
#X connect 29 0 31 0;
#X connect 29 1 30 0;
#X connect 29 1 32 0;
#X connect 29 2 30 0;
#X connect 29 2 33 0;
#X connect 30 0 28 0;
#X connect 31 0 28 0;
#X connect 32 0 27 0;
#X connect 33 0 27 0;
#X connect 34 0 22 0;
#X connect 34 1 21 0;
#X connect 34 1 23 0;
#X connect 34 2 21 0;
#X connect 34 2 24 0;
