#N canvas 427 193 798 739 10;
#X obj 357 303 soundfiler;
#N canvas 0 22 450 278 (subpatch) 0;
#X array kik 55556 float 2;
#X coords 0 1 55556 -1 200 140 1;
#X restore -11 572 graph;
#N canvas 0 22 450 278 (subpatch) 0;
#X array snare 20421 float 2;
#X coords 0 1 20421 -1 200 140 1;
#X restore 210 574 graph;
#N canvas 0 22 450 278 (subpatch) 0;
#X array hh 21201 float 2;
#X coords 0 1 21201 -1 200 140 1;
#X restore 422 573 graph;
#X floatatom 357 327 5 0 0 1 N.Sample - -;
#X obj -60 136 inlet;
#N canvas 751 94 578 470 kik 0;
#X obj 258 96 tgl 15 0 empty empty empty 17 7 0 10 -262144 -1 -1 0
1;
#X obj 19 221 vline~;
#X obj 19 244 tabread4~ kik;
#X msg 19 197 0 \, 20672 468;
#X floatatom 19 34 5 0 0 0 - - -;
#X obj 19 65 sel 0 1 2 3;
#X obj 19 164 spigot;
#X obj 70 164 spigot;
#X obj 120 164 spigot;
#X obj 170 164 spigot;
#X obj 121 96 tgl 15 0 empty empty empty 17 7 0 10 -262144 -1 -1 1
1;
#X obj 166 96 tgl 15 0 empty empty empty 17 7 0 10 -262144 -1 -1 0
1;
#X obj 212 96 tgl 15 0 empty empty empty 17 7 0 10 -262144 -1 -1 1
1;
#X obj 121 75 OSCroute /one /two /three /four;
#X obj 19 275 outlet~;
#X obj 19 4 inlet;
#X obj 121 9 inlet;
#X obj 121 46 OSCroute /kik;
#X obj 286 251 outlet;
#X obj 129 266 outlet;
#X obj 129 237 visualAnaliser kik r;
#X connect 0 0 9 1;
#X connect 1 0 2 0;
#X connect 2 0 14 0;
#X connect 3 0 1 0;
#X connect 4 0 5 0;
#X connect 5 0 6 0;
#X connect 5 1 7 0;
#X connect 5 2 8 0;
#X connect 5 3 9 0;
#X connect 6 0 3 0;
#X connect 6 0 20 0;
#X connect 7 0 3 0;
#X connect 7 0 20 0;
#X connect 8 0 3 0;
#X connect 8 0 20 0;
#X connect 9 0 3 0;
#X connect 9 0 20 0;
#X connect 10 0 6 1;
#X connect 11 0 7 1;
#X connect 12 0 8 1;
#X connect 13 0 10 0;
#X connect 13 1 11 0;
#X connect 13 2 12 0;
#X connect 13 3 0 0;
#X connect 15 0 4 0;
#X connect 16 0 17 0;
#X connect 17 0 13 0;
#X connect 17 1 18 0;
#X connect 20 0 19 0;
#X restore -6 453 pd kik;
#N canvas 738 352 347 328 snare 0;
#X obj 258 96 tgl 15 0 empty empty empty 17 7 0 10 -262144 -1 -1 0
1;
#X obj 19 221 vline~;
#X floatatom 19 34 5 0 0 0 - - -;
#X obj 19 65 sel 0 1 2 3;
#X obj 19 164 spigot;
#X obj 70 164 spigot;
#X obj 120 164 spigot;
#X obj 170 164 spigot;
#X obj 121 96 tgl 15 0 empty empty empty 17 7 0 10 -262144 -1 -1 0
1;
#X obj 166 96 tgl 15 0 empty empty empty 17 7 0 10 -262144 -1 -1 1
1;
#X obj 212 96 tgl 15 0 empty empty empty 17 7 0 10 -262144 -1 -1 0
1;
#X obj 121 75 OSCroute /one /two /three /four;
#X obj 19 275 outlet~;
#X obj 19 4 inlet;
#X obj 121 9 inlet;
#X msg 19 197 0 \, 88200 2000;
#X obj 19 244 tabread4~ snare;
#X obj 121 44 OSCroute /snare;
#X obj 277 195 outlet;
#X obj 174 276 outlet;
#X obj 175 248 visualAnaliser snare g;
#X connect 0 0 7 1;
#X connect 1 0 16 0;
#X connect 2 0 3 0;
#X connect 3 0 4 0;
#X connect 3 1 5 0;
#X connect 3 2 6 0;
#X connect 3 3 7 0;
#X connect 4 0 15 0;
#X connect 4 0 20 0;
#X connect 5 0 15 0;
#X connect 5 0 20 0;
#X connect 6 0 15 0;
#X connect 6 0 20 0;
#X connect 7 0 15 0;
#X connect 7 0 20 0;
#X connect 8 0 4 1;
#X connect 9 0 5 1;
#X connect 10 0 6 1;
#X connect 11 0 8 0;
#X connect 11 1 9 0;
#X connect 11 2 10 0;
#X connect 11 3 0 0;
#X connect 13 0 2 0;
#X connect 14 0 17 0;
#X connect 15 0 1 0;
#X connect 16 0 12 0;
#X connect 17 0 11 0;
#X connect 17 1 18 0;
#X connect 20 0 19 0;
#X restore 12 483 pd snare;
#N canvas 378 347 627 378 tempo 0;
#X obj 62 273 outlet;
#X obj 140 -74 inlet;
#X obj 141 -46 OSCroute /tempo;
#X obj 338 116 outlet;
#X obj 397 116 outlet;
#X obj 48 140 rms~;
#X obj 87 178 int;
#X obj 79 237 change;
#X obj 25 31 phasor~ 1;
#X obj 155 -11 * 2;
#X obj 35 91 *~ 4;
#X connect 1 0 2 0;
#X connect 2 0 9 0;
#X connect 2 1 3 0;
#X connect 5 0 6 0;
#X connect 6 0 7 0;
#X connect 7 0 0 0;
#X connect 8 0 10 0;
#X connect 9 0 8 0;
#X connect 10 0 5 0;
#X restore -7 361 pd tempo;
#X obj 357 162 loadbang;
#X floatatom 357 379 5 0 0 1 Time - -;
#X obj 357 353 expr int((1/(44100/$f1))*1000);
#X obj -7 318 OSCroute /drum;
#X obj 79 549 outlet;
#X text 137 533 rejected data;
#X obj -6 542 outlet~;
#X obj 357 183 t b b b;
#X msg 396 263 read -resize hh.wav hh;
#X obj 105 147 tgl 15 0 empty k1 empty 17 7 0 10 -262144 -1 -1 1 1
;
#N canvas 513 554 450 300 kik 0;
#X msg 270 126 /drum/kik/two \$1;
#X msg 290 166 /drum/kik/four \$1;
#X obj 256 76 inlet;
#X obj 296 75 inlet;
#X obj 338 81 inlet;
#X obj 382 78 inlet;
#X floatatom 195 75 5 0 0 0 - - -;
#X obj 173 209 outlet;
#X msg 239 106 /drum/kik/one \$1;
#X msg 280 146 /drum/kik/three \$1;
#X connect 0 0 7 0;
#X connect 1 0 7 0;
#X connect 2 0 8 0;
#X connect 2 0 6 0;
#X connect 3 0 0 0;
#X connect 4 0 9 0;
#X connect 5 0 1 0;
#X connect 8 0 7 0;
#X connect 9 0 7 0;
#X restore 15 163 pd kik;
#X obj 125 147 tgl 15 0 empty k2 empty 17 7 0 10 -262144 -1 -1 0 1
;
#X obj 145 147 tgl 15 0 empty k3 empty 17 7 0 10 -262144 -1 -1 1 1
;
#X obj 165 147 tgl 15 0 empty k4 empty 17 7 0 10 -262144 -1 -1 0 1
;
#X obj 105 168 tgl 15 0 empty s1 empty 17 7 0 10 -262144 -1 -1 0 1
;
#X obj 125 168 tgl 15 0 empty s2 empty 17 7 0 10 -262144 -1 -1 1 1
;
#X obj 145 168 tgl 15 0 empty s3 empty 17 7 0 10 -262144 -1 -1 0 1
;
#X obj 165 168 tgl 15 0 empty s4 empty 17 7 0 10 -262144 -1 -1 0 1
;
#X obj 105 190 tgl 15 0 empty h1 empty 17 7 0 10 -262144 -1 -1 0 1
;
#X obj 125 190 tgl 15 0 empty h2 empty 17 7 0 10 -262144 -1 -1 0 1
;
#X obj 145 190 tgl 15 0 empty h3 empty 17 7 0 10 -262144 -1 -1 0 1
;
#X obj 165 190 tgl 15 0 empty h4 empty 17 7 0 10 -262144 -1 -1 1 1
;
#N canvas 513 554 450 300 snare 0;
#X obj 256 76 inlet;
#X obj 296 75 inlet;
#X obj 338 81 inlet;
#X obj 382 78 inlet;
#X floatatom 195 75 5 0 0 0 - - -;
#X obj 173 209 outlet;
#X msg 239 106 /drum/snare/one \$1;
#X msg 270 126 /drum/snare/two \$1;
#X msg 290 166 /drum/snare/four \$1;
#X msg 280 146 /drum/snare/three \$1;
#X connect 0 0 6 0;
#X connect 0 0 4 0;
#X connect 1 0 7 0;
#X connect 2 0 9 0;
#X connect 3 0 8 0;
#X connect 6 0 5 0;
#X connect 7 0 5 0;
#X connect 8 0 5 0;
#X connect 9 0 5 0;
#X restore 15 184 pd snare;
#N canvas 513 554 450 300 hh 0;
#X obj 256 76 inlet;
#X obj 296 75 inlet;
#X obj 338 81 inlet;
#X obj 382 78 inlet;
#X floatatom 195 75 5 0 0 0 - - -;
#X obj 173 209 outlet;
#X msg 239 106 /drum/hh/one \$1;
#X msg 270 126 /drum/hh/two \$1;
#X msg 280 146 /drum/hh/three \$1;
#X msg 290 166 /drum/hh/four \$1;
#X connect 0 0 6 0;
#X connect 0 0 4 0;
#X connect 1 0 7 0;
#X connect 2 0 8 0;
#X connect 3 0 9 0;
#X connect 6 0 5 0;
#X connect 7 0 5 0;
#X connect 8 0 5 0;
#X connect 9 0 5 0;
#X restore 15 206 pd hh;
#X floatatom 127 124 5 0 0 0 bpm - -;
#X obj -6 235 through;
#X obj 197 100 notein;
#X obj 197 126 stripnote;
#N canvas 781 444 358 235 kik 0;
#X obj 92 -13 inlet;
#X obj 92 63 sel 45 46 38 39;
#X obj 92 181 s k1;
#X obj 123 181 s k2;
#X obj 153 181 s k3;
#X obj 183 181 s k4;
#X obj 221 181 outlet;
#X text 268 182 rejected;
#X floatatom 92 38 5 0 0 0 - - -;
#X obj 92 150 tgl 15 0 empty empty empty 17 7 0 10 -262144 -1 -1 1
1;
#X obj 17 10 loadbang;
#X msg 17 36 0;
#X obj 17 60 t f f f f;
#X obj 123 150 tgl 15 0 empty empty empty 17 7 0 10 -262144 -1 -1 0
1;
#X obj 153 150 tgl 15 0 empty empty empty 17 7 0 10 -262144 -1 -1 1
1;
#X obj 183 150 tgl 15 0 empty empty empty 17 7 0 10 -262144 -1 -1 0
1;
#X obj 92 10 change;
#X obj 231 20 r reset;
#X msg 231 41 0;
#X obj 231 65 t f f f f;
#X connect 0 0 16 0;
#X connect 1 0 9 0;
#X connect 1 1 13 0;
#X connect 1 2 14 0;
#X connect 1 3 15 0;
#X connect 1 4 6 0;
#X connect 8 0 1 0;
#X connect 9 0 2 0;
#X connect 10 0 11 0;
#X connect 11 0 12 0;
#X connect 12 0 9 0;
#X connect 12 1 13 0;
#X connect 12 2 14 0;
#X connect 12 3 15 0;
#X connect 13 0 3 0;
#X connect 14 0 4 0;
#X connect 15 0 5 0;
#X connect 16 0 8 0;
#X connect 17 0 18 0;
#X connect 18 0 19 0;
#X connect 19 0 9 0;
#X connect 19 1 13 0;
#X connect 19 2 14 0;
#X connect 19 3 15 0;
#X restore 197 154 pd kik;
#N canvas 836 397 333 210 snare 0;
#X obj 92 7 inlet;
#X obj 221 181 outlet;
#X text 268 182 rejected;
#X obj 92 150 tgl 15 0 empty empty empty 17 7 0 10 -262144 -1 -1 0
1;
#X obj 17 10 loadbang;
#X msg 17 36 0;
#X obj 17 60 t f f f f;
#X obj 123 150 tgl 15 0 empty empty empty 17 7 0 10 -262144 -1 -1 1
1;
#X obj 153 150 tgl 15 0 empty empty empty 17 7 0 10 -262144 -1 -1 0
1;
#X obj 183 150 tgl 15 0 empty empty empty 17 7 0 10 -262144 -1 -1 0
1;
#X obj 92 63 sel 40 41 42 43;
#X obj 92 181 s s1;
#X obj 123 181 s s2;
#X obj 153 181 s s3;
#X obj 183 181 s s4;
#X obj 92 36 change;
#X obj 241 30 r reset;
#X msg 241 51 0;
#X obj 241 75 t f f f f;
#X connect 0 0 15 0;
#X connect 3 0 11 0;
#X connect 4 0 5 0;
#X connect 5 0 6 0;
#X connect 6 0 3 0;
#X connect 6 1 7 0;
#X connect 6 2 8 0;
#X connect 6 3 9 0;
#X connect 7 0 12 0;
#X connect 8 0 13 0;
#X connect 9 0 14 0;
#X connect 10 0 3 0;
#X connect 10 1 7 0;
#X connect 10 2 8 0;
#X connect 10 3 9 0;
#X connect 10 4 1 0;
#X connect 15 0 10 0;
#X connect 16 0 17 0;
#X connect 17 0 18 0;
#X connect 18 0 3 0;
#X connect 18 1 7 0;
#X connect 18 2 8 0;
#X connect 18 3 9 0;
#X restore 197 174 pd snare;
#N canvas 836 397 333 210 hh 0;
#X obj 92 7 inlet;
#X obj 221 181 outlet;
#X text 268 182 rejected;
#X obj 92 150 tgl 15 0 empty empty empty 17 7 0 10 -262144 -1 -1 0
1;
#X obj 17 10 loadbang;
#X msg 17 36 0;
#X obj 17 60 t f f f f;
#X obj 123 150 tgl 15 0 empty empty empty 17 7 0 10 -262144 -1 -1 0
1;
#X obj 153 150 tgl 15 0 empty empty empty 17 7 0 10 -262144 -1 -1 0
1;
#X obj 183 150 tgl 15 0 empty empty empty 17 7 0 10 -262144 -1 -1 1
1;
#X obj 92 181 s h1;
#X obj 123 181 s h2;
#X obj 153 181 s h3;
#X obj 183 181 s h4;
#X obj 92 63 sel 44 45 46 47;
#X obj 92 38 change;
#X obj 251 40 r reset;
#X msg 251 61 0;
#X obj 251 85 t f f f f;
#X connect 0 0 15 0;
#X connect 3 0 10 0;
#X connect 4 0 5 0;
#X connect 5 0 6 0;
#X connect 6 0 3 0;
#X connect 6 1 7 0;
#X connect 6 2 8 0;
#X connect 6 3 9 0;
#X connect 7 0 11 0;
#X connect 8 0 12 0;
#X connect 9 0 13 0;
#X connect 14 0 3 0;
#X connect 14 1 7 0;
#X connect 14 2 8 0;
#X connect 14 3 9 0;
#X connect 14 4 1 0;
#X connect 15 0 14 0;
#X connect 16 0 17 0;
#X connect 17 0 18 0;
#X connect 18 0 3 0;
#X connect 18 1 7 0;
#X connect 18 2 8 0;
#X connect 18 3 9 0;
#X restore 197 194 pd hh;
#N canvas 263 183 821 590 buttons 0;
#X obj 63 117 r k1;
#X obj 217 115 r k2;
#X obj 63 169 prepend /drum/one;
#X obj 217 169 prepend /drum/two;
#X obj 332 171 prepend /drum/three;
#X obj 457 171 prepend /drum/four;
#X obj 331 109 r k3;
#X obj 457 109 r k4;
#X obj 63 199 s out;
#X obj 217 197 s out;
#X obj 332 198 s out;
#X obj 457 197 s out;
#X obj 61 371 s out;
#X obj 217 371 s out;
#X obj 61 269 r s1;
#X obj 336 370 s out;
#X obj 217 269 r s2;
#X obj 336 268 r s3;
#X obj 61 341 prepend /drum/five;
#X obj 217 341 prepend /drum/six;
#X obj 458 369 s out;
#X obj 458 267 r s4;
#X obj 336 340 prepend /drum/seven;
#X obj 458 339 prepend /drum/eight;
#X obj 61 521 s out;
#X obj 217 521 s out;
#X obj 336 520 s out;
#X obj 458 519 s out;
#X obj 61 399 r h1;
#X obj 217 399 r h2;
#X obj 336 398 r h3;
#X obj 458 397 r h4;
#X obj 217 491 prepend /drum/ten;
#X obj 336 490 prepend /drum/elven;
#X obj 458 488 prepend /drum/twelve;
#X obj 58 550 r out;
#X obj 60 606 outlet;
#X obj 61 491 prepend /drum/nine;
#X obj 48 142 int;
#X obj 7 115 r metro;
#X obj 189 142 int;
#X obj 148 115 r metro;
#X obj 316 137 int;
#X obj 275 110 r metro;
#X obj 439 139 int;
#X obj 398 112 r metro;
#X obj 111 77 s metro;
#X obj 85 39 tgl 15 0 empty empty empty 17 7 0 10 -262144 -1 -1 1 1
;
#X obj 112 50 metro 30;
#X obj 44 303 int;
#X obj 3 276 r metro;
#X obj 204 299 int;
#X obj 163 272 r metro;
#X obj 320 299 int;
#X obj 279 272 r metro;
#X obj 446 295 int;
#X obj 405 268 r metro;
#X obj 438 429 int;
#X obj 397 402 r metro;
#X obj 315 433 int;
#X obj 274 406 r metro;
#X obj 207 445 int;
#X obj 166 418 r metro;
#X obj 51 432 int;
#X obj 10 405 r metro;
#X obj 61 15 loadbang;
#X connect 0 0 38 1;
#X connect 1 0 40 1;
#X connect 2 0 8 0;
#X connect 3 0 9 0;
#X connect 4 0 10 0;
#X connect 5 0 11 0;
#X connect 6 0 42 1;
#X connect 7 0 44 1;
#X connect 14 0 49 1;
#X connect 16 0 51 1;
#X connect 17 0 53 1;
#X connect 18 0 12 0;
#X connect 19 0 13 0;
#X connect 21 0 55 1;
#X connect 22 0 15 0;
#X connect 23 0 20 0;
#X connect 28 0 63 1;
#X connect 29 0 61 1;
#X connect 30 0 59 1;
#X connect 31 0 57 1;
#X connect 32 0 25 0;
#X connect 33 0 26 0;
#X connect 34 0 27 0;
#X connect 35 0 36 0;
#X connect 37 0 24 0;
#X connect 38 0 2 0;
#X connect 39 0 38 0;
#X connect 40 0 3 0;
#X connect 41 0 40 0;
#X connect 42 0 4 0;
#X connect 43 0 42 0;
#X connect 44 0 5 0;
#X connect 45 0 44 0;
#X connect 47 0 48 0;
#X connect 48 0 46 0;
#X connect 49 0 18 0;
#X connect 50 0 49 0;
#X connect 51 0 19 0;
#X connect 52 0 51 0;
#X connect 53 0 22 0;
#X connect 54 0 53 0;
#X connect 55 0 23 0;
#X connect 56 0 55 0;
#X connect 57 0 34 0;
#X connect 58 0 57 0;
#X connect 59 0 33 0;
#X connect 60 0 59 0;
#X connect 61 0 32 0;
#X connect 62 0 61 0;
#X connect 63 0 37 0;
#X connect 64 0 63 0;
#X connect 65 0 47 0;
#X restore 268 467 pd buttons;
#X obj 260 549 outlet;
#X obj -7 387 t f f f f;
#X obj 202 416 prepend /drum/seq;
#N canvas 861 341 347 328 hh 0;
#X obj 258 96 tgl 15 0 empty empty empty 17 7 0 10 -262144 -1 -1 1
1;
#X obj 19 221 vline~;
#X floatatom 19 34 5 0 0 0 - - -;
#X obj 19 65 sel 0 1 2 3;
#X obj 19 164 spigot;
#X obj 70 164 spigot;
#X obj 120 164 spigot;
#X obj 170 164 spigot;
#X obj 121 96 tgl 15 0 empty empty empty 17 7 0 10 -262144 -1 -1 0
1;
#X obj 166 96 tgl 15 0 empty empty empty 17 7 0 10 -262144 -1 -1 0
1;
#X obj 212 96 tgl 15 0 empty empty empty 17 7 0 10 -262144 -1 -1 0
1;
#X obj 121 75 OSCroute /one /two /three /four;
#X obj 19 275 outlet~;
#X obj 19 4 inlet;
#X obj 121 9 inlet;
#X obj 19 244 tabread4~ hh;
#X msg 19 197 0 \, 11190 253;
#X obj 293 186 outlet;
#X obj 122 40 OSCroute /hh;
#X obj 133 266 outlet;
#X obj 131 240 visualAnaliser hh b;
#X connect 0 0 7 1;
#X connect 1 0 15 0;
#X connect 2 0 3 0;
#X connect 3 0 4 0;
#X connect 3 1 5 0;
#X connect 3 2 6 0;
#X connect 3 3 7 0;
#X connect 4 0 16 0;
#X connect 4 0 20 0;
#X connect 5 0 16 0;
#X connect 5 0 20 0;
#X connect 6 0 16 0;
#X connect 6 0 20 0;
#X connect 7 0 16 0;
#X connect 7 0 20 0;
#X connect 8 0 4 1;
#X connect 9 0 5 1;
#X connect 10 0 6 1;
#X connect 11 0 8 0;
#X connect 11 1 9 0;
#X connect 11 2 10 0;
#X connect 11 3 0 0;
#X connect 13 0 2 0;
#X connect 14 0 18 0;
#X connect 15 0 12 0;
#X connect 16 0 1 0;
#X connect 18 0 11 0;
#X connect 18 1 17 0;
#X connect 20 0 19 0;
#X restore 32 508 pd hh;
#X msg 376 243 read -resize snare.wav snare;
#X msg 357 223 read -resize kick.wav kik;
#X obj 328 97 s reset;
#X obj 325 60 bng 15 250 50 0 empty empty empty 17 7 0 10 -262144 -1
-1;
#X connect 0 0 4 0;
#X connect 4 0 11 0;
#X connect 5 0 12 0;
#X connect 6 0 15 0;
#X connect 6 1 41 0;
#X connect 6 2 7 1;
#X connect 7 0 15 0;
#X connect 7 1 41 0;
#X connect 7 2 44 1;
#X connect 8 0 42 0;
#X connect 8 1 6 1;
#X connect 8 2 33 0;
#X connect 9 0 16 0;
#X connect 11 0 10 0;
#X connect 12 0 8 0;
#X connect 12 1 13 0;
#X connect 16 0 46 0;
#X connect 16 1 45 0;
#X connect 16 2 17 0;
#X connect 17 0 0 0;
#X connect 18 0 19 0;
#X connect 19 0 34 0;
#X connect 20 0 19 1;
#X connect 21 0 19 2;
#X connect 22 0 19 3;
#X connect 23 0 31 0;
#X connect 24 0 31 1;
#X connect 25 0 31 2;
#X connect 26 0 31 3;
#X connect 27 0 32 0;
#X connect 28 0 32 1;
#X connect 29 0 32 2;
#X connect 30 0 32 3;
#X connect 31 0 34 0;
#X connect 32 0 34 0;
#X connect 34 0 12 0;
#X connect 35 0 36 0;
#X connect 35 1 36 1;
#X connect 36 0 37 0;
#X connect 37 0 38 0;
#X connect 38 0 39 0;
#X connect 40 0 41 0;
#X connect 42 0 6 0;
#X connect 42 1 7 0;
#X connect 42 2 44 0;
#X connect 42 3 43 0;
#X connect 43 0 41 0;
#X connect 44 0 15 0;
#X connect 44 1 41 0;
#X connect 45 0 0 0;
#X connect 46 0 0 0;
#X connect 48 0 47 0;
#X coords 0 -1 1 1 85 110 1 100 100;
