#N canvas 0 22 243 191 10;
#X obj 8 -5 inlet~;
#X obj 8 98 *~;
#X obj 80 -9 inlet;
#X obj 80 73 vline~;
#X obj 8 135 outlet~;
#X obj 80 46 \$1;
#X obj 112 47 \$2;
#X obj 120 -9 inlet;
#X obj 181 -8 loadbang;
#X obj 182 18 t b b;
#X connect 0 0 1 0;
#X connect 1 0 4 0;
#X connect 2 0 5 0;
#X connect 3 0 1 1;
#X connect 5 0 3 0;
#X connect 6 0 3 1;
#X connect 7 0 6 0;
#X connect 8 0 9 0;
#X connect 9 0 5 0;
#X connect 9 1 6 0;
