#N canvas 220 314 1024 386 10;
#X obj 24 309 outlet~;
#X obj 133 309 outlet~;
#X obj 29 42 inlet~;
#X obj 817 -15 inlet;
#X obj 70 79 route /gain /pan;
#X obj 189 42 inlet~;
#X obj 230 79 route /gain /pan;
#X obj 349 42 inlet~;
#X obj 390 79 route /gain /pan;
#X obj 519 42 inlet~;
#X obj 560 79 route /gain /pan;
#X obj 894 302 outlet;
#X text 896 325 Rejected Data;
#X text 861 -16 OSC data int;
#X text 28 20 Channel 1;
#X text 187 19 Channel 2;
#X text 349 17 Channel 3;
#X text 518 16 Channel 4;
#X obj 817 40 OSCroute /ch1 /ch2 /ch3 /ch4 /main;
#X obj 624 211 route /gain;
#X obj 633 38 inlet~;
#X obj 817 18 OSCroute /mixer;
#X obj 29 138 panning;
#X obj 189 138 panning;
#X obj 349 138 panning;
#X obj 24 280 gain 1 15;
#X obj 133 280 gain 1 15;
#X obj 29 108 gain 1 15;
#X obj 189 108 gain 1 15;
#X obj 349 108 gain 1 15;
#X obj 519 108 gain 1 15;
#X obj 639 117 gain 1 15;
#X connect 2 0 27 0;
#X connect 3 0 21 0;
#X connect 4 0 27 1;
#X connect 4 1 22 1;
#X connect 5 0 28 0;
#X connect 6 0 28 1;
#X connect 6 1 23 1;
#X connect 7 0 29 0;
#X connect 8 0 29 1;
#X connect 8 1 24 1;
#X connect 9 0 30 0;
#X connect 10 0 30 1;
#X connect 10 0 31 1;
#X connect 18 0 4 0;
#X connect 18 1 6 0;
#X connect 18 2 8 0;
#X connect 18 3 10 0;
#X connect 18 4 19 0;
#X connect 19 0 25 1;
#X connect 19 0 26 1;
#X connect 20 0 31 0;
#X connect 21 0 18 0;
#X connect 21 1 11 0;
#X connect 22 0 25 0;
#X connect 22 1 26 0;
#X connect 23 0 25 0;
#X connect 23 1 26 0;
#X connect 24 0 25 0;
#X connect 24 1 26 0;
#X connect 25 0 0 0;
#X connect 26 0 1 0;
#X connect 27 0 22 0;
#X connect 28 0 23 0;
#X connect 29 0 24 0;
#X connect 30 0 25 0;
#X connect 31 0 26 0;
