#N canvas 86 41 372 546 10;
#X obj 300 308 inlet;
#X obj 300 360 packOSC;
#X msg 167 371 disconnect;
#X obj 103 303 sel 1 0;
#X obj 104 135 tgl 30 0 empty empty Connection 0 -10 0 11 -262144 -1
-1 1 1;
#X msg 104 336 connect 192.168.1.10 8002;
#X obj 111 459 udpsend 192.168.1.10 8002;
#X obj 103 212 metro 2000;
#X obj 103 249 f;
#X obj 104 188 t f f;
#X connect 0 0 1 0;
#X connect 1 0 6 0;
#X connect 2 0 6 0;
#X connect 3 0 5 0;
#X connect 3 1 2 0;
#X connect 4 0 9 0;
#X connect 5 0 6 0;
#X connect 7 0 8 0;
#X connect 8 0 3 0;
#X connect 9 0 7 0;
#X connect 9 1 8 1;
#X coords 0 -1 1 1 85 70 1 100 100;
