#N canvas 0 22 450 424 10;
#X obj 50 82 inlet~;
#X obj 136 49 inlet;
#X obj 136 76 route /shift/freq;
#X msg 132 194 \$1 20;
#X obj 131 222 vline~;
#X obj 63 285 *~;
#X obj 128 257 osc~;
#X obj 63 331 outlet~;
#X floatatom 134 135 5 0 0 0 Freq - -;
#X connect 0 0 5 0;
#X connect 1 0 2 0;
#X connect 2 0 8 0;
#X connect 3 0 4 0;
#X connect 4 0 6 0;
#X connect 5 0 7 0;
#X connect 6 0 5 1;
#X connect 8 0 3 0;
#X coords 0 -1 1 1 85 60 1 100 100;
