#N canvas 87 23 306 297 10;
#N canvas 538 23 877 607 soundfile 1;
#X obj 18 208 soundfiler;
#N canvas 0 22 450 278 (subpatch) 0;
#X array MTF1 176400 float 2;
#X coords 0 1 176400 -1 200 140 1;
#X restore 312 26 graph;
#X obj 18 14 loadbang;
#X obj 22 574 outlet~;
#N canvas 0 22 450 278 (subpatch) 0;
#X array MTF2 176400 float 2;
#X coords 0 1 176400 -1 200 140 1;
#X restore 516 26 graph;
#N canvas 0 22 450 278 (subpatch) 0;
#X array MTF3 176400 float 2;
#X coords 0 1 176400 -1 200 140 1 0 0;
#X restore 720 26 graph;
#X obj 20 365 tabread4~ MTF1;
#X obj 115 365 tabread4~ MTF2;
#X obj 206 365 tabread4~ MTF3;
#X obj 22 477 *~;
#X obj 37 455 vline~;
#X msg 37 427 \$1 30;
#X obj 130 451 vline~;
#X msg 130 423 \$1 30;
#X obj 221 451 vline~;
#X msg 221 423 \$1 30;
#X obj 115 474 *~;
#X obj 206 476 *~;
#N canvas 0 22 450 278 (subpatch) 0;
#X array MTF4 176400 float 2;
#X coords 0 1 176400 -1 200 140 1 0 0;
#X restore 312 187 graph;
#X obj 314 481 vline~;
#X msg 314 453 \$1 30;
#X obj 299 506 *~;
#X obj 299 365 tabread4~ MTF4;
#X obj 314 422 expr 1-$f1;
#X obj 20 336 *~ 176400;
#N canvas 0 22 450 278 (subpatch) 0;
#X array MTF5 176400 float 2;
#X coords 0 1 176400 -1 200 140 1 0 0;
#X restore 521 187 graph;
#X obj 415 479 vline~;
#X msg 415 451 \$1 30;
#X obj 400 504 *~;
#X obj 415 420 expr 1-$f1;
#X obj 504 332 inlet;
#X obj 511 364 unpack 0 0 0;
#X obj 20 311 phasor~ 0.25;
#X obj 557 450 outlet;
#X obj 400 363 tabread4~ MTF5;
#X obj 18 46 t b b b b b;
#X msg 58 153 read -resize ../audioFiles/6.wav MTF5;
#X msg 48 133 read -resize ../audioFiles/4.wav MTF4;
#X msg 38 113 read -resize ../audioFiles/3.wav MTF3;
#X msg 28 93 read -resize ../audioFiles/2.wav MTF2;
#X msg 18 73 read -resize ../audioFiles/1.wav MTF1;
#X connect 2 0 35 0;
#X connect 6 0 9 0;
#X connect 7 0 16 0;
#X connect 8 0 17 0;
#X connect 9 0 3 0;
#X connect 10 0 9 1;
#X connect 11 0 10 0;
#X connect 12 0 16 1;
#X connect 13 0 12 0;
#X connect 14 0 17 1;
#X connect 15 0 14 0;
#X connect 16 0 3 0;
#X connect 17 0 3 0;
#X connect 19 0 21 1;
#X connect 20 0 19 0;
#X connect 21 0 3 0;
#X connect 22 0 21 0;
#X connect 23 0 20 0;
#X connect 24 0 6 0;
#X connect 24 0 7 0;
#X connect 24 0 8 0;
#X connect 24 0 22 0;
#X connect 24 0 34 0;
#X connect 26 0 28 1;
#X connect 27 0 26 0;
#X connect 28 0 3 0;
#X connect 29 0 27 0;
#X connect 30 0 31 0;
#X connect 31 0 11 0;
#X connect 31 0 23 0;
#X connect 31 1 13 0;
#X connect 31 1 33 0;
#X connect 31 2 15 0;
#X connect 31 2 29 0;
#X connect 32 0 24 0;
#X connect 34 0 28 0;
#X connect 35 0 40 0;
#X connect 35 1 39 0;
#X connect 35 2 38 0;
#X connect 35 3 37 0;
#X connect 35 4 36 0;
#X connect 36 0 0 0;
#X connect 37 0 0 0;
#X connect 38 0 0 0;
#X connect 39 0 0 0;
#X connect 40 0 0 0;
#X restore 13 41 pd soundfile;
#N canvas 866 618 792 318 OSCdataSettings 1;
#X obj 27 25 /Applications/Pd-extended.app/Contents/Resources/extra/osc/unpackOSC
;
#X obj 406 25 /Applications/Pd-extended.app/Contents/Resources/extra/net/udpsend
192.168.1.107 8889;
#X msg 422 0 connect 192.168.1.107 8889;
#X obj 422 -25 metro 2000;
#X obj 422 -44 tgl 15 0 empty empty empty 17 7 0 10 -262144 -1 -1 0
1;
#X obj 27 -36 /Applications/Pd-extended.app/Contents/Resources/extra/net/udpreceive
8888;
#N canvas 276 23 642 182 sendOSC 1;
#X obj -98 100 /Applications/Pd-extended.app/Contents/Resources/extra/osc//packOSC
;
#N canvas 822 541 450 300 color 0;
#X msg 58 209 /color \$1 \$2 \$3;
#X obj 66 247 outlet;
#X obj 49 33 r color;
#X connect 0 0 1 0;
#X connect 2 0 0 0;
#X restore -98 44 pd color;
#X obj -98 146 outlet;
#X obj -27 28 r size;
#X msg -27 55 /size \$1;
#X obj 217 33 r meterColourL;
#X obj 366 34 r meterColourR;
#X msg 217 57 /meterColourL \$1 \$2 \$3;
#X msg 366 57 /meterColourR \$1 \$2 \$3;
#X msg 128 57 /meterR \$1;
#X msg 50 58 /meterL \$1;
#X floatatom 319 133 5 0 0 0 - - -;
#X obj 50 30 r meterL;
#X obj 128 33 r meterR;
#X connect 0 0 2 0;
#X connect 1 0 0 0;
#X connect 3 0 4 0;
#X connect 4 0 0 0;
#X connect 5 0 7 0;
#X connect 6 0 8 0;
#X connect 7 0 0 0;
#X connect 8 0 0 0;
#X connect 9 0 0 0;
#X connect 10 0 0 0;
#X connect 12 0 10 0;
#X connect 12 0 11 0;
#X connect 13 0 9 0;
#X restore 605 0 pd sendOSC;
#X obj 27 120 unpack 0 0 0;
#X obj 27 75 /Applications/Pd-extended.app/Contents/Resources/extra/osc/routeOSC
/0/euler;
#X obj 27 149 + 180;
#X obj 27 168 / 360;
#X obj 124 148 + 180;
#X obj 124 167 / 360;
#X obj 70 146 + 80;
#X obj 70 166 / 160;
#X obj 264 124 print OSC;
#X obj 34 195 pack 0 0 0;
#X obj 34 217 outlet;
#X connect 0 0 8 0;
#X connect 0 0 15 0;
#X connect 2 0 1 0;
#X connect 3 0 2 0;
#X connect 4 0 3 0;
#X connect 5 0 0 0;
#X connect 5 0 1 0;
#X connect 6 0 1 0;
#X connect 7 0 9 0;
#X connect 7 1 13 0;
#X connect 7 2 11 0;
#X connect 8 0 7 0;
#X connect 9 0 10 0;
#X connect 10 0 16 0;
#X connect 11 0 12 0;
#X connect 12 0 16 2;
#X connect 13 0 14 0;
#X connect 14 0 16 1;
#X connect 16 0 17 0;
#X restore 14 18 pd OSCdataSettings;
#X obj 135 45 dsp;
#X obj 135 19 tgl 15 0 empty empty empty 17 7 0 10 -262144 -1 -1 0
1;
#X floatatom 135 92 5 0 0 0 - - -;
#X text 183 93 % mean-cpu-load;
#X floatatom 150 67 5 0 0 0 - - -;
#X text 196 67 % peak-cpu-load;
#X obj 83 148 cnv 15 200 50 foo10_snd foo10_rcv sphere 63 25 0 17 -120377
-262144 0;
#X obj 11 149 vsl 30 128 0 1 0 0 empty meterL meterL 0 -9 0 10 -32256
-262144 -262144 0 1;
#X obj 45 149 vsl 30 128 0 1 0 0 empty meterR meterR 0 -9 0 10 -229825
-262144 -262144 0 1;
#N canvas 4 351 407 348 pan______ 1;
#X obj 24 248 *~;
#X obj 105 248 *~;
#X obj 24 21 inlet~;
#X obj 118 114 t f f;
#X obj 232 314 outlet~;
#X obj 59 151 expr 1-$f1;
#X obj 44 179 f;
#X obj 130 180 f;
#X obj 203 19 loadbang;
#X obj 203 91 t b b;
#X obj 24 311 dac~ 1 2;
#X obj 120 226 vline~;
#X obj 39 226 vline~;
#X msg 124 203 \$1 30;
#X msg 42 201 \$1 30;
#X obj 114 315 outlet~;
#X obj 288 315 outlet~;
#X obj 114 274 +~;
#X obj 24 43 *~ 2.5;
#X msg 203 44 1;
#X obj 118 20 inlet;
#X obj 203 67 metro 20;
#X connect 0 0 4 0;
#X connect 0 0 17 0;
#X connect 0 0 10 0;
#X connect 1 0 10 1;
#X connect 1 0 16 0;
#X connect 1 0 17 1;
#X connect 2 0 18 0;
#X connect 3 0 5 0;
#X connect 3 1 7 1;
#X connect 5 0 6 1;
#X connect 6 0 14 0;
#X connect 7 0 13 0;
#X connect 8 0 19 0;
#X connect 9 0 6 0;
#X connect 9 1 7 0;
#X connect 11 0 1 1;
#X connect 12 0 0 1;
#X connect 13 0 11 0;
#X connect 14 0 12 0;
#X connect 17 0 15 0;
#X connect 18 0 1 0;
#X connect 18 0 0 0;
#X connect 19 0 21 0;
#X connect 20 0 3 0;
#X connect 21 0 9 0;
#X restore 13 65 pd pan______;
#N canvas 0 435 1081 446 meter____ 1;
#X obj 46 29 inlet~;
#X obj 39 150 s size;
#X obj 88 102 rms~;
#X obj 89 148 * 255;
#X obj 89 171 int;
#X obj 250 108 rms~;
#X obj 250 154 * 255;
#X obj 250 178 int;
#X obj 250 132 * 3;
#X obj 164 114 rms~;
#X obj 164 161 int;
#X obj 164 92 bp~ 1000 3;
#X obj 352 265 s color;
#X obj 352 234 pack 0 0 0;
#X obj 88 79 lop~ 250;
#X obj 250 86 hip~ 2000;
#X msg 130 350 \; foo10_rcv color \$1 \$2;
#X msg 130 231 back;
#X msg 130 255 label;
#X msg 91 258 bang;
#N canvas 15 207 606 448 RGB_____________ 0;
#X obj 97 56 inlet;
#X obj 262 53 inlet;
#X obj 339 55 inlet;
#X obj 405 56 inlet;
#X obj 97 270 bang;
#X msg 77 295 0;
#X msg 104 295 1;
#X obj 146 268 bang;
#X msg 132 295 0;
#X msg 160 295 1;
#X obj 265 313 spigot;
#X obj 312 313 spigot;
#X obj 249 385 outlet;
#X text 93 33 select;
#X text 267 28 red;
#X text 337 30 green;
#X text 409 30 blue;
#X obj 405 102 t b f;
#X obj 339 160 +;
#X obj 339 185 t b f;
#X obj 339 216 +;
#X obj 296 385 outlet;
#X obj 28 180 loadbang;
#X obj 296 361 f;
#X obj 249 361 f;
#X obj 262 79 * -65536;
#X obj 339 80 * -256;
#X obj 405 80 * -1;
#X obj 339 247 - 1;
#X obj 97 135 route back label bang;
#X obj 235 168 t b b b;
#X connect 0 0 29 0;
#X connect 1 0 25 0;
#X connect 2 0 26 0;
#X connect 3 0 27 0;
#X connect 4 0 5 0;
#X connect 4 0 6 0;
#X connect 5 0 11 1;
#X connect 6 0 10 1;
#X connect 7 0 8 0;
#X connect 7 0 9 0;
#X connect 8 0 10 1;
#X connect 9 0 11 1;
#X connect 10 0 24 1;
#X connect 11 0 23 1;
#X connect 17 0 18 0;
#X connect 17 1 18 1;
#X connect 18 0 19 0;
#X connect 19 0 20 0;
#X connect 19 1 20 1;
#X connect 20 0 28 0;
#X connect 22 0 6 0;
#X connect 23 0 21 0;
#X connect 24 0 12 0;
#X connect 25 0 20 0;
#X connect 26 0 18 0;
#X connect 27 0 17 0;
#X connect 28 0 11 0;
#X connect 28 0 10 0;
#X connect 29 0 4 0;
#X connect 29 1 7 0;
#X connect 29 2 30 0;
#X connect 30 0 24 0;
#X connect 30 1 23 0;
#X connect 30 2 28 0;
#X restore 130 292 pd RGB_____________;
#X floatatom 172 261 3 0 255 0 - - -;
#X floatatom 215 261 3 0 255 0 - - -;
#X floatatom 258 262 3 0 255 0 - - -;
#X text 141 206 RGB-colors;
#X text 172 243 red;
#X text 208 242 green;
#X text 256 242 blue;
#X obj 130 317 pack 0 0;
#X obj 89 224 t b;
#X obj 533 33 inlet~;
#X obj 569 202 * 255;
#X obj 569 233 int;
#X obj 611 204 * 255;
#X obj 611 235 int;
#X obj 611 173 expr 1-$f1;
#X obj 678 315 pack 0 0 0;
#N canvas 15 207 606 448 RGB_____________ 0;
#X obj 97 56 inlet;
#X obj 262 53 inlet;
#X obj 339 55 inlet;
#X obj 405 56 inlet;
#X obj 97 270 bang;
#X msg 77 295 0;
#X msg 104 295 1;
#X obj 146 268 bang;
#X msg 132 295 0;
#X msg 160 295 1;
#X obj 265 313 spigot;
#X obj 312 313 spigot;
#X obj 249 385 outlet;
#X text 93 33 select;
#X text 267 28 red;
#X text 337 30 green;
#X text 409 30 blue;
#X obj 405 102 t b f;
#X obj 339 160 +;
#X obj 339 185 t b f;
#X obj 339 216 +;
#X obj 296 385 outlet;
#X obj 28 180 loadbang;
#X obj 296 361 f;
#X obj 249 361 f;
#X obj 262 79 * -65536;
#X obj 339 80 * -256;
#X obj 405 80 * -1;
#X obj 339 247 - 1;
#X obj 97 135 route back label bang;
#X obj 235 168 t b b b;
#X connect 0 0 29 0;
#X connect 1 0 25 0;
#X connect 2 0 26 0;
#X connect 3 0 27 0;
#X connect 4 0 5 0;
#X connect 4 0 6 0;
#X connect 5 0 11 1;
#X connect 6 0 10 1;
#X connect 7 0 8 0;
#X connect 7 0 9 0;
#X connect 8 0 10 1;
#X connect 9 0 11 1;
#X connect 10 0 24 1;
#X connect 11 0 23 1;
#X connect 17 0 18 0;
#X connect 17 1 18 1;
#X connect 18 0 19 0;
#X connect 19 0 20 0;
#X connect 19 1 20 1;
#X connect 20 0 28 0;
#X connect 22 0 6 0;
#X connect 23 0 21 0;
#X connect 24 0 12 0;
#X connect 25 0 20 0;
#X connect 26 0 18 0;
#X connect 27 0 17 0;
#X connect 28 0 11 0;
#X connect 28 0 10 0;
#X connect 29 0 4 0;
#X connect 29 1 7 0;
#X connect 29 2 30 0;
#X connect 30 0 24 0;
#X connect 30 1 23 0;
#X connect 30 2 28 0;
#X restore 544 340 pd RGB_____________;
#X floatatom 586 309 3 0 255 0 - - -;
#X floatatom 629 309 3 0 255 0 - - -;
#X text 586 291 red;
#X text 622 290 green;
#X obj 544 365 pack 0 0;
#X msg 544 312 bang;
#X obj 546 279 t b;
#X obj 533 118 t f f f;
#X obj 533 70 rms~;
#X obj 832 25 inlet~;
#X obj 868 174 * 255;
#X obj 868 205 int;
#X obj 910 176 * 255;
#X obj 910 207 int;
#X obj 910 145 expr 1-$f1;
#X obj 957 237 pack 0 0 0;
#N canvas 15 207 606 448 RGB_____________ 0;
#X obj 97 56 inlet;
#X obj 262 53 inlet;
#X obj 339 55 inlet;
#X obj 405 56 inlet;
#X obj 97 270 bang;
#X msg 77 295 0;
#X msg 104 295 1;
#X obj 146 268 bang;
#X msg 132 295 0;
#X msg 160 295 1;
#X obj 265 313 spigot;
#X obj 312 313 spigot;
#X obj 249 385 outlet;
#X text 93 33 select;
#X text 267 28 red;
#X text 337 30 green;
#X text 409 30 blue;
#X obj 405 102 t b f;
#X obj 339 160 +;
#X obj 339 185 t b f;
#X obj 339 216 +;
#X obj 296 385 outlet;
#X obj 28 180 loadbang;
#X obj 296 361 f;
#X obj 249 361 f;
#X obj 262 79 * -65536;
#X obj 339 80 * -256;
#X obj 405 80 * -1;
#X obj 339 247 - 1;
#X obj 97 135 route back label bang;
#X obj 235 168 t b b b;
#X connect 0 0 29 0;
#X connect 1 0 25 0;
#X connect 2 0 26 0;
#X connect 3 0 27 0;
#X connect 4 0 5 0;
#X connect 4 0 6 0;
#X connect 5 0 11 1;
#X connect 6 0 10 1;
#X connect 7 0 8 0;
#X connect 7 0 9 0;
#X connect 8 0 10 1;
#X connect 9 0 11 1;
#X connect 10 0 24 1;
#X connect 11 0 23 1;
#X connect 17 0 18 0;
#X connect 17 1 18 1;
#X connect 18 0 19 0;
#X connect 19 0 20 0;
#X connect 19 1 20 1;
#X connect 20 0 28 0;
#X connect 22 0 6 0;
#X connect 23 0 21 0;
#X connect 24 0 12 0;
#X connect 25 0 20 0;
#X connect 26 0 18 0;
#X connect 27 0 17 0;
#X connect 28 0 11 0;
#X connect 28 0 10 0;
#X connect 29 0 4 0;
#X connect 29 1 7 0;
#X connect 29 2 30 0;
#X connect 30 0 24 0;
#X connect 30 1 23 0;
#X connect 30 2 28 0;
#X restore 843 332 pd RGB_____________;
#X floatatom 885 301 3 0 255 0 - - -;
#X floatatom 928 301 3 0 255 0 - - -;
#X text 885 283 red;
#X text 921 282 green;
#X obj 843 357 pack 0 0;
#X msg 845 304 bang;
#X obj 847 271 t b;
#X obj 832 110 t f f f;
#X obj 832 52 rms~;
#X obj 781 232 s meterR;
#X msg 544 398 \; meterL color \$1 \$2;
#X obj 677 343 s meterColourL;
#X obj 956 265 s meterColourR;
#X msg 843 390 \; meterR color \$1 \$2;
#X obj 89 126 * 1.5;
#X obj 164 140 * 255;
#X obj 46 78 rms~;
#X floatatom 47 113 5 0 0 0 - - -;
#X obj 482 240 s meterL;
#X floatatom 442 133 5 0 0 0 - - -;
#X floatatom 752 126 5 0 0 0 - - -;
#X obj 531 94 * 4;
#X obj 832 81 * 4;
#X connect 0 0 15 0;
#X connect 0 0 14 0;
#X connect 0 0 71 0;
#X connect 0 0 11 0;
#X connect 2 0 69 0;
#X connect 3 0 4 0;
#X connect 4 0 13 0;
#X connect 4 0 21 0;
#X connect 4 0 29 0;
#X connect 5 0 8 0;
#X connect 6 0 7 0;
#X connect 7 0 13 2;
#X connect 7 0 23 0;
#X connect 8 0 6 0;
#X connect 9 0 70 0;
#X connect 10 0 13 1;
#X connect 10 0 22 0;
#X connect 11 0 9 0;
#X connect 13 0 12 0;
#X connect 14 0 2 0;
#X connect 15 0 5 0;
#X connect 17 0 20 0;
#X connect 18 0 20 0;
#X connect 19 0 20 0;
#X connect 20 0 28 0;
#X connect 20 1 28 1;
#X connect 21 0 20 1;
#X connect 22 0 20 2;
#X connect 23 0 20 3;
#X connect 28 0 16 0;
#X connect 29 0 19 0;
#X connect 30 0 46 0;
#X connect 31 0 32 0;
#X connect 32 0 36 0;
#X connect 32 0 38 0;
#X connect 32 0 44 0;
#X connect 33 0 34 0;
#X connect 34 0 36 1;
#X connect 34 0 39 0;
#X connect 35 0 33 0;
#X connect 36 0 66 0;
#X connect 37 0 42 0;
#X connect 37 1 42 1;
#X connect 38 0 37 1;
#X connect 39 0 37 2;
#X connect 42 0 65 0;
#X connect 43 0 37 0;
#X connect 44 0 43 0;
#X connect 45 0 73 0;
#X connect 45 1 31 0;
#X connect 45 2 35 0;
#X connect 46 0 76 0;
#X connect 47 0 63 0;
#X connect 48 0 49 0;
#X connect 49 0 53 0;
#X connect 49 0 55 0;
#X connect 49 0 61 0;
#X connect 50 0 51 0;
#X connect 51 0 53 1;
#X connect 51 0 56 0;
#X connect 52 0 50 0;
#X connect 53 0 67 0;
#X connect 54 0 59 0;
#X connect 54 1 59 1;
#X connect 55 0 54 1;
#X connect 56 0 54 2;
#X connect 59 0 68 0;
#X connect 60 0 54 0;
#X connect 61 0 60 0;
#X connect 62 0 64 0;
#X connect 62 1 48 0;
#X connect 62 2 52 0;
#X connect 63 0 75 0;
#X connect 63 0 77 0;
#X connect 69 0 3 0;
#X connect 70 0 10 0;
#X connect 71 0 1 0;
#X connect 71 0 72 0;
#X connect 76 0 45 0;
#X connect 76 0 74 0;
#X connect 77 0 62 0;
#X restore 13 93 pd meter____;
#X connect 0 0 11 0;
#X connect 0 1 11 1;
#X connect 1 0 0 0;
#X connect 2 0 4 0;
#X connect 2 1 6 0;
#X connect 3 0 2 0;
#X connect 11 0 12 0;
#X connect 11 1 12 1;
#X connect 11 2 12 2;
