#N canvas 0 23 724 667 10;
#N canvas 175 181 1042 423 soundfile 0;
#X obj 78 278 soundfiler;
#X text 277 197 forward;
#X msg 78 253 read -resize MTF.aiff MTF;
#N canvas 0 22 450 278 (subpatch) 0;
#X array MTF 2.17387e+07 float 2;
#X coords 0 1 2.17387e+07 -1 200 140 1;
#X restore 439 218 graph;
#X msg 277 214 0 \, 2.17387e+07 452889;
#X obj 277 273 tabread4~ MTF;
#X obj 277 242 vline~;
#X obj 78 76 loadbang;
#X obj 275 137 inlet;
#X obj 277 302 outlet~;
#X connect 2 0 0 0;
#X connect 4 0 6 0;
#X connect 5 0 9 0;
#X connect 6 0 5 0;
#X connect 7 0 2 0;
#X connect 8 0 4 0;
#X restore 33 51 pd soundfile;
#N canvas 226 322 902 330 elaboration 1;
#X obj 317 76 inlet~;
#X obj 476 133 unpack 0 0 0;
#X obj 471 158 s yaw;
#X obj 513 161 s pitch;
#X obj 567 160 s roll;
#X obj 476 108 routeOSC /8/euler;
#N canvas 553 183 887 620 pitch 0;
#X floatatom 29 97 0 0 0 0 - - -;
#X obj 92 368 *~;
#X obj 215 305 line~;
#X floatatom 247 122 0 0 0 0 - - -;
#X text 78 -1 PITCH SHIFTER;
#X obj 215 279 pack 0 200;
#X obj 247 96 r window;
#X obj 29 153 exp;
#X floatatom 29 179 6 0 0 0 - - -;
#X obj 29 269 /;
#X obj 156 199 * 0.001;
#X obj 324 375 line~;
#X obj 324 350 pack 0 200;
#X floatatom 324 299 0 0 0 0 - - -;
#X obj 324 273 r delay;
#X obj 92 394 +~;
#X obj 29 420 cos~;
#X obj 29 447 *~;
#X obj 29 476 +~;
#X obj 116 327 wrap~;
#X obj 261 370 *~;
#X obj 261 403 +~;
#X obj 198 430 cos~;
#X obj 198 457 *~;
#X obj 502 40 loadbang;
#X obj 156 226 t b f;
#X floatatom 29 295 6 0 0 0 - - -;
#X obj 116 300 +~ 0.5;
#X obj 29 368 -~ 0.5;
#X obj 29 394 *~ 0.5;
#X obj 198 369 -~ 0.5;
#X obj 198 402 *~ 0.5;
#X obj 29 206 - 1;
#X obj 29 127 * 0.05776;
#X obj 29 232 * -1;
#X text 63 96 <-- transposition;
#X text 106 109 (halftones);
#X text 92 173 speed;
#X text 91 187 change;
#X text 291 121 <--window (msec);
#X text 64 262 tape head;
#X text 435 163 This is a classic rotating-tape-head style pitch shifter
using the vd~ variable delay object. Ther are two moving tape heads
\, each of which is loudest at the middle of its trajectory \, and
enveloped out at the moment it has to jump back (or forward) to start
another scratch. Most of the brain work is in computing how fast the
tape heads have to move to get the desired transposition.;
#X text 435 282 The "window size" is the total trajectory of the read
points in the delay line \, in milliseconds. The delay times are controlled
by a phasor~ object. The second delay time \, 180 degrees out of phase
from the first one \, is computed using the "wrap" object.;
#X text 433 372 The "window size" is the total trajectory of the read
points in the delay line \, in milliseconds. The delay times are controlled
by a phasor~ object. The second delay time \, 180 degrees out of phase
from the first one \, is computed using the "wrap" object.;
#X text 432 464 The cos~ objects compute the fadein and fadeout of
the two delay line outputs. They each traverse the positive half of
the cosine waveform (phase -0.25 to +0.25) over the time the phase
goes from one end to the other.;
#X obj 29 326 phasor~;
#X text 699 544 updated for Pd version 0.37-1;
#X obj 324 326 max 1.5;
#X text 327 232 delay;
#X text 324 250 (msec);
#X obj 247 149 max 1;
#X text 65 275 rotation freq;
#X obj 92 420 vd~ G09-del;
#X obj 261 432 vd~ G09-del;
#X obj 274 52 delwrite~ G09-del 5000;
#X obj 274 21 inlet~;
#X obj 30 541 outlet~;
#X msg 502 66 \; window 100 \; delay 0;
#X obj 29 19 r pitch;
#X obj 29 69 min 20;
#X obj 29 45 max -20;
#X connect 0 0 33 0;
#X connect 1 0 15 0;
#X connect 2 0 1 1;
#X connect 2 0 20 1;
#X connect 3 0 50 0;
#X connect 5 0 2 0;
#X connect 6 0 3 0;
#X connect 7 0 8 0;
#X connect 8 0 32 0;
#X connect 9 0 26 0;
#X connect 10 0 25 0;
#X connect 11 0 15 1;
#X connect 11 0 21 1;
#X connect 12 0 11 0;
#X connect 13 0 47 0;
#X connect 14 0 13 0;
#X connect 15 0 52 0;
#X connect 16 0 17 0;
#X connect 17 0 18 0;
#X connect 18 0 56 0;
#X connect 19 0 20 0;
#X connect 19 0 30 0;
#X connect 20 0 21 0;
#X connect 21 0 53 0;
#X connect 22 0 23 0;
#X connect 23 0 18 1;
#X connect 24 0 57 0;
#X connect 25 0 9 0;
#X connect 25 1 9 1;
#X connect 26 0 45 0;
#X connect 27 0 19 0;
#X connect 28 0 29 0;
#X connect 29 0 16 0;
#X connect 30 0 31 0;
#X connect 31 0 22 0;
#X connect 32 0 34 0;
#X connect 33 0 7 0;
#X connect 34 0 9 0;
#X connect 45 0 1 0;
#X connect 45 0 28 0;
#X connect 45 0 27 0;
#X connect 47 0 12 0;
#X connect 50 0 10 0;
#X connect 50 0 5 0;
#X connect 52 0 17 1;
#X connect 53 0 23 1;
#X connect 55 0 54 0;
#X connect 58 0 60 0;
#X connect 59 0 0 0;
#X connect 60 0 59 0;
#X restore 317 104 pd pitch;
#N canvas 593 418 450 300 AM 1;
#X obj 108 -22 inlet~;
#X obj 108 164 *~;
#X obj 123 117 vline~;
#X obj 170 -24 inlet;
#X obj 170 -3 route /8/raw;
#X obj 170 18 unpack 0 0 0;
#X obj 168 164 *~;
#X obj 183 117 vline~;
#X obj 108 239 outlet~;
#X obj 168 239 outlet~;
#X obj 108 203 *~;
#X obj 168 204 *~;
#X obj 251 163 vline~;
#X floatatom 170 48 5 0 0 0 - - -;
#X floatatom 213 48 5 0 0 0 - - -;
#X floatatom 261 46 5 0 0 0 - - -;
#X connect 0 0 1 0;
#X connect 0 0 6 0;
#X connect 1 0 10 0;
#X connect 2 0 1 1;
#X connect 3 0 4 0;
#X connect 4 0 5 0;
#X connect 5 0 13 0;
#X connect 5 1 14 0;
#X connect 5 2 15 0;
#X connect 6 0 11 0;
#X connect 7 0 6 1;
#X connect 10 0 8 0;
#X connect 11 0 9 0;
#X connect 12 0 10 1;
#X connect 12 0 11 1;
#X restore 317 128 pd AM;
#X obj 317 171 outlet~;
#X obj 378 169 outlet~;
#X obj 638 159 outlet;
#X obj 476 86 inlet;
#X connect 0 0 6 0;
#X connect 1 0 2 0;
#X connect 1 1 3 0;
#X connect 1 2 4 0;
#X connect 5 0 1 0;
#X connect 5 1 10 0;
#X connect 6 0 7 0;
#X connect 7 0 8 0;
#X connect 7 1 9 0;
#X connect 11 0 5 0;
#X restore 33 72 pd elaboration;
#X obj 33 12 bng 15 250 50 0 empty empty empty 17 7 0 10 -262144 -1
-1;
#N canvas 346 432 210 187 pan________ 1;
#X obj 24 146 dac~;
#X obj 24 118 *~;
#X obj 105 118 *~;
#X obj 39 96 vline~;
#X obj 120 96 vline~;
#X msg 66 46 1;
#X obj 24 22 inlet~;
#X obj 107 20 inlet~;
#X obj 163 20 inlet;
#X floatatom 156 47 5 0 0 0 - - -;
#X connect 1 0 0 0;
#X connect 2 0 0 1;
#X connect 3 0 1 1;
#X connect 4 0 2 1;
#X connect 5 0 3 0;
#X connect 5 0 4 0;
#X connect 6 0 1 0;
#X connect 7 0 2 0;
#X connect 8 0 9 0;
#X connect 9 0 3 0;
#X connect 9 0 4 0;
#X restore 33 100 pd pan________;
#N canvas 144 103 450 300 OSCdataSettings 1;
#X obj 56 66 unpackOSC;
#X obj 56 97 outlet;
#X obj 56 42 udpreceive 192.168.1.254 8888;
#X connect 0 0 1 0;
#X connect 2 0 0 0;
#X restore 114 20 pd OSCdataSettings;
#X connect 0 0 1 0;
#X connect 1 0 3 0;
#X connect 1 1 3 1;
#X connect 1 2 3 2;
#X connect 2 0 0 0;
#X connect 4 0 1 1;
