#N canvas 0 22 739 428 10;
#X obj 33 213 delread~ delay1;
#X obj 19 69 delwrite~ delay1 1000;
#X obj 19 41 inlet~;
#X obj 273 18 inlet;
#X obj 19 388 outlet~;
#X obj 89 388 outlet~;
#X obj 273 39 OSCroute /delay;
#X obj 501 347 outlet;
#X text 503 369 rejected data;
#X obj 273 101 route /time /mode;
#X obj 19 310 *~;
#X obj 353 229 vline~;
#X obj 34 283 expr~ 1-$v1;
#X msg 353 203 \$1 20;
#X obj 198 295 *~;
#X obj 236 294 *~;
#X obj 236 209 delread~ delay1;
#X obj 236 186 * 2;
#X text 462 21 mode 0 simple delay \; mode 1 ping pong delay;
#X connect 0 0 10 0;
#X connect 0 0 14 0;
#X connect 2 0 1 0;
#X connect 2 0 10 0;
#X connect 2 0 14 0;
#X connect 2 0 15 0;
#X connect 3 0 6 0;
#X connect 6 0 9 0;
#X connect 6 1 7 0;
#X connect 9 0 17 0;
#X connect 9 0 0 0;
#X connect 9 1 13 0;
#X connect 10 0 4 0;
#X connect 10 0 5 0;
#X connect 11 0 12 0;
#X connect 11 0 14 1;
#X connect 11 0 15 1;
#X connect 12 0 10 1;
#X connect 13 0 11 0;
#X connect 14 0 4 0;
#X connect 15 0 5 0;
#X connect 16 0 15 0;
#X connect 17 0 16 0;
