#N canvas 0 22 158 193 10;
#X obj 8 15 inlet~;
#X obj 8 98 *~;
#X obj 80 21 inlet;
#X obj 80 73 vline~;
#X msg 80 48 \$1 20;
#X obj 8 135 outlet~;
#X connect 0 0 1 0;
#X connect 1 0 5 0;
#X connect 2 0 4 0;
#X connect 3 0 1 1;
#X connect 4 0 3 0;
