#N canvas 0 22 214 217 10;
#X obj 30 17 inlet~;
#X obj 30 140 *~;
#X obj 121 68 vline~;
#X msg 121 38 \$1 20;
#X obj 106 143 *~;
#X obj 45 104 expr~ 1-y1;
#X obj 121 12 inlet;
#X obj 30 171 outlet~;
#X obj 106 173 outlet~;
#X connect 0 0 1 0;
#X connect 0 0 4 0;
#X connect 1 0 7 0;
#X connect 2 0 5 0;
#X connect 2 0 4 1;
#X connect 3 0 2 0;
#X connect 4 0 8 0;
#X connect 5 0 1 1;
#X connect 6 0 3 0;
