#N canvas 360 204 679 645 10;
#X obj 34 252 delread~ delay1;
#X obj 49 69 delwrite~ delay1 1000;
#X obj 9 42 inlet~;
#X obj 263 -2 inlet;
#X obj 16 578 outlet~;
#X obj 130 578 outlet~;
#X obj 263 19 OSCroute /delay;
#X obj 517 426 outlet;
#X text 519 448 rejected data;
#X obj 263 61 route /time /mode;
#X obj 9 360 *~;
#X obj 353 269 vline~;
#X obj 24 333 expr~ 1-$v1;
#X msg 353 243 \$1 20;
#X obj 169 365 *~;
#X obj 221 364 *~;
#X obj 236 249 delread~ delay1;
#X obj 236 226 * 2;
#X text 462 21 mode 0 simple delay \; mode 1 ping pong delay;
#X msg 253 447 0;
#X msg 202 447 1;
#X obj 202 195 t b f f b;
#X floatatom 209 135 5 0 0 0 - - -;
#X obj 202 420 delay 40;
#X obj 130 549 gain 0 20;
#X obj 16 545 gain 0 20;
#X connect 0 0 10 0;
#X connect 0 0 14 0;
#X connect 2 0 1 0;
#X connect 2 0 10 0;
#X connect 2 0 14 0;
#X connect 2 0 15 0;
#X connect 3 0 6 0;
#X connect 6 0 9 0;
#X connect 6 1 7 0;
#X connect 9 0 22 0;
#X connect 9 1 13 0;
#X connect 10 0 24 0;
#X connect 10 0 25 0;
#X connect 11 0 12 0;
#X connect 11 0 14 1;
#X connect 11 0 15 1;
#X connect 12 0 10 1;
#X connect 13 0 11 0;
#X connect 14 0 25 0;
#X connect 15 0 24 0;
#X connect 16 0 15 0;
#X connect 17 0 16 0;
#X connect 19 0 24 1;
#X connect 19 0 25 1;
#X connect 20 0 24 1;
#X connect 20 0 25 1;
#X connect 21 0 23 0;
#X connect 21 1 0 0;
#X connect 21 2 17 0;
#X connect 21 3 19 0;
#X connect 22 0 21 0;
#X connect 23 0 20 0;
#X connect 24 0 5 0;
#X connect 25 0 4 0;
