#N canvas 768 34 586 580 10;
#X obj 48 -215 unpack 0 0 0;
#X obj 48 -186 + 180;
#X obj 48 -167 / 360;
#X obj 145 -187 + 180;
#X obj 145 -168 / 360;
#X obj 91 -189 + 80;
#X obj 91 -169 / 160;
#X obj 75 20 hsl 128 15 0 1 0 0 empty empty empty -2 -8 0 10 -262144
-1 -1 2476 1;
#X obj 241 190 outlet;
#X obj 48 -270 unpackOSC;
#X obj 48 -240 routeOSC /0/euler;
#X obj 76 -59 \$1;
#X obj 11 -133 metro 20;
#X obj 17 -104 t b b;
#X obj 252 -87 \$1;
#X msg -29 -171 1;
#X obj -28 -192 loadbang;
#X obj 74 -20 change;
#X obj 241 136 prepend /drum/tempo;
#X obj 354 191 outlet;
#X obj 76 51 expr $f1;
#X obj 77 110 * 2000;
#X obj 77 143 - 1000;
#X obj 48 -301 udpreceive 8888;
#X obj 293 22 hsl 128 15 0 1 0 0 empty empty empty -2 -8 0 10 -262144
-1 -1 5626 1;
#X connect 0 0 1 0;
#X connect 0 1 5 0;
#X connect 0 2 3 0;
#X connect 1 0 2 0;
#X connect 3 0 4 0;
#X connect 4 0 14 1;
#X connect 5 0 6 0;
#X connect 6 0 11 1;
#X connect 7 0 20 0;
#X connect 9 0 10 0;
#X connect 10 0 0 0;
#X connect 11 0 17 0;
#X connect 12 0 13 0;
#X connect 13 0 11 0;
#X connect 13 1 14 0;
#X connect 14 0 18 0;
#X connect 14 0 24 0;
#X connect 15 0 12 0;
#X connect 16 0 15 0;
#X connect 17 0 7 0;
#X connect 18 0 8 0;
#X connect 20 0 21 0;
#X connect 21 0 22 0;
#X connect 22 0 19 0;
#X connect 23 0 9 0;
#X coords 0 580 1 579 85 60 0;
