#N canvas 0 22 214 217 10;
#X obj 30 17 inlet~;
#X obj 30 140 *~;
#X msg 121 42 \$1 20;
#X obj 106 143 *~;
#X obj 121 12 inlet;
#X obj 30 171 outlet~;
#X obj 106 173 outlet~;
#X obj 121 72 vline~;
#X obj 45 114 expr~ 1-$v1;
#X connect 0 0 1 0;
#X connect 0 0 3 0;
#X connect 1 0 5 0;
#X connect 2 0 7 0;
#X connect 3 0 6 0;
#X connect 4 0 2 0;
#X connect 7 0 3 1;
#X connect 7 0 8 0;
#X connect 8 0 1 1;
