#N canvas 0 22 514 416 10;
#X obj -231 66 rpole~;
#X obj -231 41 rzero_rev~;
#X obj -231 115 rpole~;
#X obj -231 90 rzero_rev~;
#X obj -231 163 rpole~;
#X obj -231 138 rzero_rev~;
#X obj -231 212 rpole~;
#X obj -231 187 rzero_rev~;
#X obj -254 242 +~;
#X obj -76 158 phasor~ 0.3;
#X obj -76 190 expr~ 1 - 0.03 - 0.6*abs($v1-0.5)*abs($v1-0.5);
#X obj -245 -44 inlet~;
#X obj -255 295 outlet~;
#X obj -76 85 OSCroute /phaser;
#X obj -76 62 inlet;
#X obj 150 296 outlet;
#X obj -76 108 OSCroute /freq;
#X floatatom 132 136 5 0 0 0 freq - -;
#X obj -76 133 interp 0 20;
#X connect 0 0 3 0;
#X connect 1 0 0 0;
#X connect 2 0 5 0;
#X connect 3 0 2 0;
#X connect 4 0 7 0;
#X connect 5 0 4 0;
#X connect 6 0 8 1;
#X connect 7 0 6 0;
#X connect 8 0 12 0;
#X connect 9 0 10 0;
#X connect 10 0 1 1;
#X connect 10 0 0 1;
#X connect 10 0 3 1;
#X connect 10 0 2 1;
#X connect 10 0 5 1;
#X connect 10 0 4 1;
#X connect 10 0 7 1;
#X connect 10 0 6 1;
#X connect 11 0 1 0;
#X connect 11 0 8 0;
#X connect 13 0 16 0;
#X connect 13 1 15 0;
#X connect 14 0 13 0;
#X connect 16 0 17 0;
#X connect 16 0 18 0;
#X connect 18 0 9 0;
#X coords 0 -1 1 1 85 60 1 100 100;
