#N canvas 246 305 884 405 10;
#X obj 149 63 loadbang;
#X obj 151 91 tgl 15 0 empty empty empty 17 7 0 10 -262144 -1 -1 1
1;
#X obj 161 234 int;
#X obj 318 235 prepend /\$1/size;
#X obj 149 116 metro 20;
#X obj 150 317 outlet;
#X obj 346 173 line 0 0;
#X msg 452 149 1;
#X msg 342 143 1 \, 0 250;
#X obj 161 262 prepend /\$1/colour/\$2;
#X obj 198 193 * 255;
#X obj 379 23 inlet;
#X obj 387 60 t b b;
#X obj 345 104 delay 50;
#X connect 0 0 1 0;
#X connect 1 0 4 0;
#X connect 2 0 9 0;
#X connect 3 0 5 0;
#X connect 4 0 2 0;
#X connect 6 0 10 0;
#X connect 6 0 3 0;
#X connect 7 0 10 0;
#X connect 7 0 3 0;
#X connect 8 0 6 0;
#X connect 9 0 5 0;
#X connect 10 0 2 1;
#X connect 11 0 12 0;
#X connect 12 0 13 0;
#X connect 12 1 7 0;
#X connect 13 0 8 0;
